<svg width="24" height="24" viewBox="0 0 24 24" fill="none" xmlns="http://www.w3.org/2000/svg">
<path d="M12.378 22.3978L21.378 17.1478C21.5499 17.0476 21.6748 16.8832 21.7254 16.6909C21.7418 16.6286 21.7501 16.5644 21.7501 16.5C21.7501 16.491 21.75 16.482 21.7497 16.473C21.7452 16.3494 21.7103 16.2289 21.648 16.1221C21.5136 15.8917 21.2669 15.75 21.0001 15.75C20.8673 15.75 20.7369 15.7853 20.6222 15.8522L12.0001 20.8817L3.37813 15.8522C3.26334 15.7853 3.13293 15.75 3.00014 15.75C2.9874 15.75 2.97466 15.7503 2.96194 15.751C2.70912 15.7639 2.47986 15.9034 2.3523 16.1221C2.28539 16.2368 2.25014 16.3672 2.25014 16.5C2.25014 16.5127 2.25046 16.5255 2.25111 16.5382C2.264 16.791 2.40357 17.0203 2.62223 17.1478L11.6222 22.3978C11.8558 22.5341 12.1445 22.5341 12.378 22.3978Z" fill="#5C6566"/>
<path d="M12.378 17.8978L21.378 12.6478C21.5499 12.5476 21.6748 12.3832 21.7254 12.1909C21.7418 12.1286 21.7501 12.0644 21.7501 12C21.7501 11.991 21.75 11.982 21.7497 11.973C21.7452 11.8494 21.7103 11.7289 21.648 11.6221C21.5136 11.3917 21.2669 11.25 21.0001 11.25C20.8673 11.25 20.7369 11.2853 20.6222 11.3522L12.0001 16.3817L3.37813 11.3522C3.26334 11.2853 3.13293 11.25 3.00014 11.25C2.9874 11.25 2.97466 11.2503 2.96194 11.251C2.70912 11.2639 2.47986 11.4034 2.3523 11.6221C2.28539 11.7368 2.25014 11.8672 2.25014 12C2.25014 12.0127 2.25046 12.0255 2.25111 12.0382C2.264 12.291 2.40357 12.5203 2.62223 12.6478L11.6222 17.8978C11.8558 18.0341 12.1445 18.0341 12.378 17.8978Z" fill="#5C6566"/>
<path fill-rule="evenodd" clip-rule="evenodd" d="M11.6222 1.60217C11.8557 1.46594 12.1445 1.46594 12.378 1.60217L21.378 6.85217C21.4898 6.91735 21.5828 7.01034 21.648 7.1221C21.8567 7.47989 21.7358 7.93912 21.378 8.14783L12.378 13.3978C12.1445 13.5341 11.8557 13.5341 11.6222 13.3978L2.62222 8.14783C2.51047 8.08265 2.41748 7.98966 2.35229 7.8779C2.14358 7.52011 2.26443 7.06088 2.62222 6.85217L11.6222 1.60217ZM4.4886 7.5L12.0001 3.11828L19.5116 7.5L12.0001 11.8817L4.4886 7.5Z" fill="#5C6566"/>
</svg>
