<svg width="48" height="48" viewBox="0 0 48 48" fill="none" xmlns="http://www.w3.org/2000/svg">
<g clip-path="url(#clip0_1138_2347)">
<path d="M12 33.5H6C5.60379 33.5052 5.22526 33.6649 4.94507 33.9451C4.66488 34.2253 4.50518 34.6038 4.5 35V46.5H13.5V35C13.4948 34.6038 13.3351 34.2253 13.0549 33.9451C12.7747 33.6649 12.3962 33.5052 12 33.5Z" stroke="#2F343B" stroke-width="2.5" stroke-linecap="round" stroke-linejoin="round"/>
<path d="M27 17.5H21C20.6038 17.5052 20.2253 17.6649 19.9451 17.9451C19.6649 18.2253 19.5052 18.6038 19.5 19V46.5H28.5V19C28.4948 18.6038 28.3351 18.2253 28.0549 17.9451C27.7747 17.6649 27.3962 17.5052 27 17.5Z" fill="#0A9FA8" stroke="#0A9FA8" stroke-width="2.5" stroke-linecap="round" stroke-linejoin="round"/>
<path d="M42 27.5H36C35.6038 27.5052 35.2253 27.6649 34.9451 27.9451C34.6649 28.2253 34.5052 28.6038 34.5 29V46.5H43.5V29C43.4948 28.6038 43.3351 28.2253 43.0549 27.9451C42.7747 27.6649 42.3962 27.5052 42 27.5Z" stroke="#2F343B" stroke-width="2.5" stroke-linecap="round" stroke-linejoin="round"/>
<path d="M1.5 21C1.5 21.7956 1.81607 22.5587 2.37868 23.1213C2.94129 23.6839 3.70435 24 4.5 24C5.29565 24 6.05871 23.6839 6.62132 23.1213C7.18393 22.5587 7.5 21.7956 7.5 21C7.5 20.2044 7.18393 19.4413 6.62132 18.8787C6.05871 18.3161 5.29565 18 4.5 18C3.70435 18 2.94129 18.3161 2.37868 18.8787C1.81607 19.4413 1.5 20.2044 1.5 21Z" stroke="#2F343B" stroke-width="2.5" stroke-linecap="round" stroke-linejoin="round"/>
<path d="M40.5 12C40.5 12.7956 40.8161 13.5587 41.3787 14.1213C41.9413 14.6839 42.7044 15 43.5 15C44.2956 15 45.0587 14.6839 45.6213 14.1213C46.1839 13.5587 46.5 12.7956 46.5 12C46.5 11.2044 46.1839 10.4413 45.6213 9.87868C45.0587 9.31607 44.2956 9 43.5 9C42.7044 9 41.9413 9.31607 41.3787 9.87868C40.8161 10.4413 40.5 11.2044 40.5 12Z" stroke="#2F343B" stroke-width="2.5" stroke-linecap="round" stroke-linejoin="round"/>
<path d="M6.40039 18.6803L16.1004 6.82031" stroke="#2F343B" stroke-width="2.5" stroke-linecap="round" stroke-linejoin="round"/>
<path d="M40.6209 11.1598L20.8809 5.33984" stroke="#2F343B" stroke-width="2.5" stroke-linecap="round" stroke-linejoin="round"/>
<path d="M1.5 46.5H46.5" stroke="#2F343B" stroke-width="2.5" stroke-linecap="round" stroke-linejoin="round"/>
<path d="M15 4.5C15 5.29565 15.3161 6.05871 15.8787 6.62132C16.4413 7.18393 17.2044 7.5 18 7.5C18.7956 7.5 19.5587 7.18393 20.1213 6.62132C20.6839 6.05871 21 5.29565 21 4.5C21 3.70435 20.6839 2.94129 20.1213 2.37868C19.5587 1.81607 18.7956 1.5 18 1.5C17.2044 1.5 16.4413 1.81607 15.8787 2.37868C15.3161 2.94129 15 3.70435 15 4.5Z" fill="#0A9FA8" stroke="#0A9FA8" stroke-width="2.5" stroke-linecap="round" stroke-linejoin="round"/>
</g>
<defs>
<clipPath id="clip0_1138_2347">
<rect width="48" height="48" fill="white"/>
</clipPath>
</defs>
</svg>
