<svg width="24" height="24" viewBox="0 0 24 24" fill="none" xmlns="http://www.w3.org/2000/svg">
<path fill-rule="evenodd" clip-rule="evenodd" d="M14.7481 4.54943L7.94855 11.3489C7.78892 11.5082 7.69922 11.7244 7.69922 11.9499C7.69922 12.1753 7.78892 12.3915 7.94855 12.5508L14.7481 19.3503C14.9073 19.5099 15.1235 19.5996 15.349 19.5996C15.5744 19.5996 15.7906 19.5099 15.9499 19.3503C16.1095 19.191 16.1992 18.9748 16.1992 18.7494C16.1992 18.5239 16.1095 18.3077 15.9499 18.1484L9.7513 11.9499L15.9499 5.75126C16.1093 5.59189 16.1988 5.37574 16.1988 5.15035C16.1988 4.92496 16.1093 4.7088 15.9499 4.54943C15.7906 4.38987 15.5744 4.30031 15.349 4.30053C15.1235 4.30031 14.9073 4.38987 14.7481 4.54943Z" fill="#0F1212"/>
</svg>
