<svg width="328" height="69" viewBox="0 0 328 69" fill="none" xmlns="http://www.w3.org/2000/svg">
<g clip-path="url(#clip0_1138_2516)">
<g clip-path="url(#clip1_1138_2516)">
<path d="M255.62 9.20498C257.093 12.8583 256.294 17.424 252.343 19.192C254.523 19.8472 256.195 21.2789 256.943 23.409C258.394 27.5426 257.021 32.5073 252.736 34.1931C251.338 34.693 249.911 35.054 248.354 35.056L230.537 35.0817L230.533 4.74527L246.516 4.74219L249.676 4.94481C249.609 5.07337 249.542 5.17623 249.484 5.17623H249.21C249.348 5.34285 249.719 5.18754 249.926 5.04149C252.407 5.41999 254.673 6.85993 255.62 9.20806V9.20498ZM249.112 15.7423C249.987 14.7323 249.885 12.7277 248.952 11.7763C248.079 10.8877 246.775 10.7159 245.502 10.6562L237.67 10.6408L237.665 16.9693L246.473 16.9282C247.442 16.9241 248.516 16.4294 249.112 15.7423ZM249.5 28.2348C250.687 27.2588 250.77 25.5689 250.105 24.1958C249.294 23.1704 248.082 22.8196 246.727 22.6849L237.668 22.6633L237.666 29.2047L246.877 29.1996C247.825 29.0484 248.703 28.89 249.5 28.2348Z" fill="#0A9FA8"/>
<path d="M127.559 28.0549C132.105 30.8967 138.092 29.8672 141.475 25.6852L147.423 28.5476L146.736 29.5041C144.106 33.1688 138.348 36.1124 133.996 36.0723L131.921 36.0538C127.964 35.8573 124.251 34.2857 121.314 31.7124C116.067 27.1148 114.629 19.5994 117.805 13.3891C119.9 9.29247 123.469 6.28197 127.9 4.92945C129.845 4.33599 131.818 3.95955 133.871 4.048C137.51 4.20537 140.831 5.26886 143.685 7.51826C144.848 8.43468 145.893 9.43955 146.712 10.6728L147.603 12.0129L141.945 14.6388C141.823 14.6953 141.633 14.7735 141.536 14.7828C141.419 14.7941 141.265 14.5544 141.199 14.4145C141.105 14.215 140.921 14.1122 140.76 13.9414C138.484 11.5131 135.332 10.2819 131.937 10.7016C128.912 11.0749 126.049 12.9438 124.465 15.7218C122.033 19.9902 123.331 25.4116 127.558 28.0559L127.559 28.0549Z" fill="#0A9FA8"/>
<path d="M202.739 29.7127L203.801 28.8632L209.77 23.9324L214.983 19.3863C215.959 18.5357 216.723 17.5421 217.358 16.4313C218.583 14.291 218.31 11.5808 215.982 10.508C214.519 9.82611 212.868 10.004 211.484 10.8505C210.407 11.7248 209.875 12.9384 209.805 14.4329L203.252 14.4452C203.192 10.3887 205.431 6.8804 209.065 5.29235C212.541 3.77321 216.517 3.79995 219.912 5.51863C221.843 6.49573 223.264 8.05189 224.05 10.0514C225.569 13.9197 224.493 17.9402 222.032 21.1862C221 22.513 219.931 23.7185 218.611 24.7645L212.752 29.4083L225.638 29.4196L225.633 35.0837H202.754L202.738 29.7117L202.739 29.7127Z" fill="#0A9FA8"/>
<path d="M173.004 24.9341L173.029 35.0785L166.376 35.0836L166.374 32.9278C164.365 34.8861 161.517 35.7779 158.678 35.4683C154.372 34.9993 150.926 32.2089 149.585 28.0968C148.172 23.7646 149.063 18.9264 152.285 15.6094C156.009 11.7761 162.567 11.3194 166.352 15.0499L166.381 13.0525L172.918 13.0546L173.004 15.0396L172.998 17.3538L173.007 24.2306L173.004 24.9351V24.9341ZM166.458 23.9919C166.458 20.8673 163.928 18.334 160.809 18.334C157.689 18.334 155.16 20.8673 155.16 23.9919C155.16 27.1166 157.689 29.6499 160.809 29.6499C163.928 29.6499 166.458 27.1166 166.458 23.9919Z" fill="#0A9FA8"/>
<path d="M184.789 4.24219H177.988V35.0878H184.789V4.24219Z" fill="#0A9FA8"/>
<path d="M196.35 4.24219H189.672V35.0878H196.35V4.24219Z" fill="#0A9FA8"/>
<path d="M106.702 6.84692C106.549 4.71581 105.458 2.71635 103.726 1.46874C102.611 0.666487 101.22 0.0226276 99.771 0.0215991L79.467 0C79.1425 0 78.821 0.017485 78.5037 0.0514265H78.2573C74.9681 0.0514265 72.1615 2.12186 71.0638 5.03157C70.7023 5.88627 70.5031 6.82018 70.5031 7.80242L70.5 28.8451C70.5 32.7648 73.8416 35.9492 77.8147 35.9831L86.224 36.0541C86.9233 36.0602 87.7603 36.4521 88.3446 36.8409L95.8759 41.8467C96.1902 42.0555 96.6615 42.0432 96.9716 41.8622C97.1842 41.7377 97.3711 41.3345 97.3721 41.0116L97.3865 36.5087C97.3875 36.1209 97.9503 35.9934 98.2265 36.0057C99.6806 36.0695 100.976 35.9656 102.317 35.4236C104.774 34.43 106.724 32.1415 106.729 29.3697L106.731 28.4049C106.731 28.3658 106.734 28.3267 106.734 28.2876V26.8354L106.762 11.9937C106.765 10.2328 106.828 8.60468 106.702 6.84898V6.84692ZM99.9558 23.9195C99.77 24.8287 98.8273 26.2131 98.1598 26.7767C95.6089 28.9336 92.8866 28.8472 89.9168 27.4299C85.1006 25.1311 81.415 20.911 79.0418 16.1736C78.0796 14.2523 77.0763 11.7324 78.1073 9.88314C78.5191 9.14568 79.0767 8.55428 79.6405 7.92276C80.1478 7.35501 80.6705 6.71321 81.3945 6.41802C82.6042 5.92433 83.933 6.47562 84.6395 7.54838C85.4035 8.70959 86.0803 9.88211 86.6789 11.1184C87.0538 11.8939 86.7642 12.7157 86.1121 13.1652C85.6058 13.5149 85.1088 13.8934 84.6826 14.2924C84.1764 14.7687 84.2924 15.3724 84.621 15.8949C86.1018 18.2523 88.0632 20.226 90.4128 21.7246C91.4664 22.3973 92.4194 21.2083 93.2696 20.1324C93.7574 19.5153 94.5492 19.251 95.2762 19.6573L98.8468 21.6567C99.7258 22.1484 100.165 22.8868 99.9548 23.9174L99.9558 23.9195Z" fill="#0A9FA8"/>
</g>
<path d="M113.494 51.1348V58.957H112.176V55.5732H110.638V58.8691H109.349V51.3691H110.638V54.4453H112.176V51.1348H113.494ZM113.494 59.6309V64.2451H112.117V60.7441H104.573V59.6309H113.494ZM107.986 52.248V58.0195H102.859V52.248H107.986ZM104.163 53.332V56.9502H106.697V53.332H104.163ZM121.471 51.8965V55.6465H116.9V57.3311C119.178 57.3237 120.789 57.2432 122.701 56.9209L122.848 58.0488C120.811 58.4004 119.083 58.4736 116.563 58.4736H115.509V54.5625H120.108V53.0244H115.494V51.8965H121.471ZM125.279 51.1348V54.416H127.198V55.5732H125.279V59.1035H123.888V51.1348H125.279ZM125.279 59.7627V64.2305H123.888V60.8906H116.607V59.7627H125.279ZM138.5 51.1201V64.2744H137.108V51.1201H138.5ZM131.483 52.1016C133.431 52.1016 134.867 53.8887 134.867 56.7012C134.867 59.5283 133.431 61.3154 131.483 61.3154C129.506 61.3154 128.085 59.5283 128.085 56.7012C128.085 53.8887 129.506 52.1016 131.483 52.1016ZM131.483 53.3467C130.267 53.3467 129.432 54.6357 129.432 56.7012C129.432 58.7812 130.267 60.0703 131.483 60.0703C132.684 60.0703 133.519 58.7812 133.519 56.7012C133.519 54.6357 132.684 53.3467 131.483 53.3467ZM148.212 59.792C148.212 60.9199 148.769 62.1138 149.955 62.8242C151.164 62.0552 151.757 60.7954 151.757 59.792V59.1621H153.119V59.792C153.119 61.1543 154.013 62.4727 155.727 63.0293L155.038 64.0547C153.742 63.6079 152.863 62.7363 152.402 61.6523C151.984 62.7144 151.2 63.6738 149.999 64.1719C148.74 63.6958 147.941 62.7656 147.538 61.6963C147.062 62.729 146.198 63.6006 144.96 64.0547L144.257 63.0293C145.942 62.4287 146.85 61.0664 146.865 59.792V59.1621H148.212V59.792ZM154.54 51.1348V58.6055H153.149V51.1348H154.54ZM147.421 51.8525C149.428 51.8525 150.908 53.127 150.908 54.958C150.908 56.7744 149.428 58.0342 147.421 58.0342C145.414 58.0342 143.92 56.7744 143.92 54.958C143.92 53.127 145.414 51.8525 147.421 51.8525ZM147.421 53.0391C146.176 53.0244 145.283 53.8008 145.283 54.958C145.283 56.1006 146.176 56.877 147.421 56.877C148.652 56.877 149.545 56.1006 149.545 54.958C149.545 53.8008 148.652 53.0244 147.421 53.0391ZM166.941 54.958V56.0713H157.902V51.5889H159.279V54.958H166.941ZM168.317 57.7266V58.8398H156.306V57.7266H168.317ZM167.028 62.7949V63.9375H157.8V60.085H159.191V62.7949H167.028ZM176.873 53.2148C176.873 54.9434 178.074 56.54 180.037 57.1846L179.29 58.2832C177.854 57.7778 176.778 56.7524 176.214 55.4561C175.635 56.9282 174.522 58.0781 172.991 58.6494L172.244 57.5361C174.295 56.8037 175.481 55.0605 175.496 53.0977V51.8086H176.873V53.2148ZM182.659 51.1201V54.416H184.563V55.5879H182.659V59.0449H181.267V51.1201H182.659ZM178.425 59.3525C181.121 59.3525 182.776 60.2461 182.776 61.7842C182.776 63.3369 181.121 64.2305 178.425 64.2158C175.701 64.2305 174.016 63.3369 174.016 61.7842C174.016 60.2461 175.701 59.3525 178.425 59.3525ZM178.425 60.4512C176.521 60.4512 175.393 60.9492 175.408 61.7842C175.393 62.6484 176.521 63.1172 178.425 63.1318C180.315 63.1172 181.414 62.6484 181.414 61.7842C181.414 60.9492 180.315 60.4512 178.425 60.4512ZM195.323 51.1201V54.2402H197.227V55.3975H195.323V58.5322H193.931V51.1201H195.323ZM191.426 51.9844V53.1123H186.973V56.7305C189.529 56.7231 190.972 56.6279 192.613 56.3057L192.774 57.4189C191.001 57.7998 189.449 57.8584 186.636 57.8584H185.596V51.9844H191.426ZM195.323 59.1768V64.0693H186.944V59.1768H195.323ZM188.306 60.29V62.9561H193.946V60.29H188.306ZM211.979 51.1348V60.8027H210.587V57.3896H207.335C206.712 58.1294 205.76 58.5762 204.669 58.5762C202.691 58.5762 201.227 57.1992 201.227 55.2656C201.227 53.3174 202.691 51.9404 204.669 51.9258C205.753 51.9331 206.698 52.3799 207.32 53.1123H210.587V51.1348H211.979ZM212.33 62.8389V63.9668H203.453V59.792H204.845V62.8389H212.33ZM204.669 53.1709C203.439 53.1709 202.56 54.0205 202.56 55.2656C202.56 56.5107 203.439 57.3457 204.669 57.3457C205.856 57.3457 206.749 56.5107 206.749 55.2656C206.749 54.0205 205.856 53.1709 204.669 53.1709ZM207.936 54.2402C208.024 54.5552 208.082 54.8994 208.082 55.2656C208.082 55.6172 208.031 55.9541 207.936 56.2617H210.587V54.2402H207.936ZM224.642 51.1201V57.7998H223.251V56.54H219.926V55.4561H223.251V54.0352H220.087C219.274 56.0713 217.296 57.4116 214.389 58.0928L213.905 56.9502C217.055 56.2544 218.761 54.7969 218.988 52.8633H214.594V51.7207H220.512C220.512 52.1455 220.475 52.5483 220.409 52.9365H223.251V51.1201H224.642ZM224.642 58.3564V61.6816H217.465V63H225.038V64.1133H216.088V60.627H223.251V59.4551H216.059V58.3564H224.642Z" fill="#0A9FA8"/>
</g>
<defs>
<clipPath id="clip0_1138_2516">
<rect width="328" height="69" fill="white"/>
</clipPath>
<clipPath id="clip1_1138_2516">
<rect width="187" height="42" fill="white" transform="translate(70.5)"/>
</clipPath>
</defs>
</svg>
