<svg width="328" height="69" viewBox="0 0 328 69" fill="none" xmlns="http://www.w3.org/2000/svg">
<g clip-path="url(#clip0_1182_4717)">
<g clip-path="url(#clip1_1182_4717)">
<path d="M255.62 9.20498C257.093 12.8583 256.294 17.424 252.343 19.192C254.523 19.8472 256.195 21.2789 256.943 23.409C258.394 27.5426 257.021 32.5073 252.736 34.1931C251.338 34.693 249.911 35.054 248.354 35.056L230.537 35.0817L230.533 4.74527L246.516 4.74219L249.676 4.94481C249.609 5.07337 249.542 5.17623 249.484 5.17623H249.21C249.348 5.34285 249.719 5.18754 249.926 5.04149C252.407 5.41999 254.673 6.85993 255.62 9.20806V9.20498ZM249.112 15.7423C249.987 14.7323 249.885 12.7277 248.952 11.7763C248.079 10.8877 246.775 10.7159 245.502 10.6562L237.67 10.6408L237.665 16.9693L246.473 16.9282C247.442 16.9241 248.516 16.4294 249.112 15.7423ZM249.5 28.2348C250.687 27.2588 250.77 25.5689 250.105 24.1958C249.294 23.1704 248.082 22.8196 246.727 22.6849L237.668 22.6633L237.666 29.2047L246.877 29.1996C247.825 29.0484 248.703 28.89 249.5 28.2348Z" fill="#0A9FA8"/>
<path d="M127.559 28.0549C132.105 30.8967 138.092 29.8672 141.475 25.6852L147.423 28.5476L146.736 29.5041C144.106 33.1688 138.348 36.1124 133.996 36.0723L131.921 36.0538C127.964 35.8573 124.251 34.2857 121.314 31.7124C116.067 27.1148 114.629 19.5994 117.805 13.3891C119.9 9.29247 123.469 6.28197 127.9 4.92945C129.845 4.33599 131.818 3.95955 133.871 4.048C137.51 4.20537 140.831 5.26886 143.685 7.51826C144.848 8.43468 145.893 9.43955 146.712 10.6728L147.603 12.0129L141.945 14.6388C141.823 14.6953 141.633 14.7735 141.536 14.7828C141.419 14.7941 141.265 14.5544 141.199 14.4145C141.105 14.215 140.921 14.1122 140.76 13.9414C138.484 11.5131 135.332 10.2819 131.937 10.7016C128.912 11.0749 126.049 12.9438 124.465 15.7218C122.033 19.9902 123.331 25.4116 127.558 28.0559L127.559 28.0549Z" fill="#0A9FA8"/>
<path d="M202.739 29.7127L203.801 28.8632L209.77 23.9324L214.983 19.3863C215.959 18.5357 216.723 17.5421 217.358 16.4313C218.583 14.291 218.31 11.5808 215.982 10.508C214.519 9.82611 212.868 10.004 211.484 10.8505C210.407 11.7248 209.875 12.9384 209.805 14.4329L203.252 14.4452C203.192 10.3887 205.431 6.8804 209.065 5.29235C212.541 3.77321 216.517 3.79995 219.912 5.51863C221.843 6.49573 223.264 8.05189 224.05 10.0514C225.569 13.9197 224.493 17.9402 222.032 21.1862C221 22.513 219.931 23.7185 218.611 24.7645L212.752 29.4083L225.638 29.4196L225.633 35.0837H202.754L202.738 29.7117L202.739 29.7127Z" fill="#0A9FA8"/>
<path d="M173.004 24.9341L173.029 35.0785L166.376 35.0836L166.374 32.9278C164.365 34.8861 161.517 35.7779 158.678 35.4683C154.372 34.9993 150.926 32.2089 149.585 28.0968C148.172 23.7646 149.063 18.9264 152.285 15.6094C156.009 11.7761 162.567 11.3194 166.352 15.0499L166.381 13.0525L172.918 13.0546L173.004 15.0396L172.998 17.3538L173.007 24.2306L173.004 24.9351V24.9341ZM166.458 23.9919C166.458 20.8673 163.928 18.334 160.809 18.334C157.689 18.334 155.16 20.8673 155.16 23.9919C155.16 27.1166 157.689 29.6499 160.809 29.6499C163.928 29.6499 166.458 27.1166 166.458 23.9919Z" fill="#0A9FA8"/>
<path d="M184.789 4.24219H177.988V35.0878H184.789V4.24219Z" fill="#0A9FA8"/>
<path d="M196.35 4.24219H189.672V35.0878H196.35V4.24219Z" fill="#0A9FA8"/>
<path d="M106.702 6.84692C106.549 4.71581 105.458 2.71635 103.726 1.46874C102.611 0.666487 101.22 0.0226276 99.771 0.0215991L79.467 0C79.1425 0 78.821 0.017485 78.5037 0.0514265H78.2573C74.9681 0.0514265 72.1615 2.12186 71.0638 5.03157C70.7023 5.88627 70.5031 6.82018 70.5031 7.80242L70.5 28.8451C70.5 32.7648 73.8416 35.9492 77.8147 35.9831L86.224 36.0541C86.9233 36.0602 87.7603 36.4521 88.3446 36.8409L95.8759 41.8467C96.1902 42.0555 96.6615 42.0432 96.9716 41.8622C97.1842 41.7377 97.3711 41.3345 97.3721 41.0116L97.3865 36.5087C97.3875 36.1209 97.9503 35.9934 98.2265 36.0057C99.6806 36.0695 100.976 35.9656 102.317 35.4236C104.774 34.43 106.724 32.1415 106.729 29.3697L106.731 28.4049C106.731 28.3658 106.734 28.3267 106.734 28.2876V26.8354L106.762 11.9937C106.765 10.2328 106.828 8.60468 106.702 6.84898V6.84692ZM99.9558 23.9195C99.77 24.8287 98.8273 26.2131 98.1598 26.7767C95.6089 28.9336 92.8866 28.8472 89.9168 27.4299C85.1006 25.1311 81.415 20.911 79.0418 16.1736C78.0796 14.2523 77.0763 11.7324 78.1073 9.88314C78.5191 9.14568 79.0767 8.55428 79.6405 7.92276C80.1478 7.35501 80.6705 6.71321 81.3945 6.41802C82.6042 5.92433 83.933 6.47562 84.6395 7.54838C85.4035 8.70959 86.0803 9.88211 86.6789 11.1184C87.0538 11.8939 86.7642 12.7157 86.1121 13.1652C85.6058 13.5149 85.1088 13.8934 84.6826 14.2924C84.1764 14.7687 84.2924 15.3724 84.621 15.8949C86.1018 18.2523 88.0632 20.226 90.4128 21.7246C91.4664 22.3973 92.4194 21.2083 93.2696 20.1324C93.7574 19.5153 94.5492 19.251 95.2762 19.6573L98.8468 21.6567C99.7258 22.1484 100.165 22.8868 99.9548 23.9174L99.9558 23.9195Z" fill="#0A9FA8"/>
</g>
<path d="M112.923 52.3799V53.6689C112.923 55.2949 112.923 57.1113 112.425 59.792L111.019 59.6455C111.531 57.1113 111.531 55.251 111.531 53.6689V53.5078H103.563V52.3799H112.923ZM114.271 61.3154V62.4727H102.303V61.3154H106.858V56.6865H108.235V61.3154H114.271ZM126.158 51.1348V58.8545H124.84V55.4854H123.258V58.7812H121.939V51.3691H123.258V54.3281H124.84V51.1348H126.158ZM126.158 59.4258V64.2451H124.781V60.5537H117.193V59.4258H126.158ZM120.709 52.0723C120.709 55.2656 118.995 57.5801 115.641 58.9717L114.967 57.9316C117.618 56.8916 119.054 55.2583 119.303 53.2002H115.538V52.0723H120.709ZM133.607 51.3398C136.566 51.3398 138.295 52.1309 138.295 53.5957C138.295 55.0605 136.566 55.8662 133.607 55.8662C130.648 55.8662 128.92 55.0605 128.92 53.5957C128.92 52.1309 130.648 51.3398 133.607 51.3398ZM133.607 52.3652C131.512 52.3652 130.355 52.8193 130.37 53.5957C130.355 54.4014 131.512 54.8262 133.607 54.8262C135.702 54.8262 136.859 54.4014 136.859 53.5957C136.859 52.8193 135.702 52.3652 133.607 52.3652ZM139.598 56.6719V57.7852H127.631V56.6719H139.598ZM138.09 58.7959V61.8721H130.443V63.0439H138.456V64.1133H129.081V60.8613H136.713V59.8359H129.066V58.7959H138.09ZM153.969 51.1201V53.8594H155.873V55.0166H153.969V57.7559H152.577V51.1201H153.969ZM153.969 58.3564V61.6816H146.879V62.9707H154.423V64.084H145.517V60.6416H152.592V59.4404H145.488V58.3564H153.969ZM147.304 51.5742C149.296 51.5742 150.746 52.7754 150.746 54.5039C150.746 56.2324 149.296 57.4336 147.304 57.4336C145.312 57.4336 143.847 56.2324 143.862 54.5039C143.847 52.7754 145.312 51.5742 147.304 51.5742ZM147.304 52.7168C146.088 52.7168 145.209 53.4346 145.209 54.5039C145.209 55.5732 146.088 56.3203 147.304 56.3203C148.505 56.3203 149.399 55.5732 149.399 54.5039C149.399 53.4346 148.505 52.7168 147.304 52.7168ZM166.941 52.3799V53.6689C166.941 55.2949 166.941 57.1113 166.442 59.792L165.036 59.6455C165.549 57.1113 165.549 55.251 165.549 53.6689V53.5078H157.58V52.3799H166.941ZM168.288 61.3154V62.4727H156.32V61.3154H160.876V56.6865H162.253V61.3154H168.288ZM182.659 51.1201V54.2256H184.563V55.3828H182.659V58.7812H181.267V51.1201H182.659ZM174.221 51.8672V53.7715H177.664V51.8672H179.041V58.0195H172.859V51.8672H174.221ZM174.221 56.9209H177.664V54.8701H174.221V56.9209ZM182.761 59.4697V60.583H175.686V62.9561H182.996V64.0547H174.295V59.4697H182.761ZM195.63 54.958V56.0713H186.592V51.5889H187.969V54.958H195.63ZM197.007 57.7266V58.8398H184.996V57.7266H197.007ZM195.718 62.7949V63.9375H186.49V60.085H187.881V62.7949H195.718ZM211.979 51.1348V60.7441H210.587V55.8076H208.082V54.6797H210.587V51.1348H211.979ZM212.33 62.8389V63.9668H203.453V59.8799H204.845V62.8389H212.33ZM205.738 53.7861C205.738 55.4268 206.925 57.0674 208.902 57.7266L208.185 58.8398C206.712 58.3198 205.621 57.2651 205.05 55.9688C204.479 57.4116 203.329 58.5762 201.769 59.1328L201.051 58.0049C203.072 57.3164 204.317 55.5879 204.317 53.7861V53.2734H201.476V52.1309H208.551V53.2734H205.738V53.7861ZM223.983 51.1201V56.6133H225.961V57.7852H223.983V64.2451H222.592V51.1201H223.983ZM213.539 60.6709C214.572 60.6709 215.773 60.6709 217.025 60.627V59.2939C215.546 59.0889 214.579 58.1953 214.594 56.9209C214.579 55.4414 215.853 54.46 217.728 54.46C219.589 54.46 220.878 55.4414 220.892 56.9209C220.878 58.1953 219.896 59.0962 218.417 59.3086V60.5684C219.581 60.5244 220.753 60.4292 221.845 60.2754L221.933 61.3008C219.091 61.8135 216.015 61.8281 213.759 61.8281L213.539 60.6709ZM221.654 52.6729V53.7861H213.788V52.6729H217.025V51.1494H218.417V52.6729H221.654ZM217.728 55.5439C216.63 55.5439 215.897 56.0859 215.897 56.9209C215.897 57.7559 216.63 58.2686 217.728 58.2686C218.827 58.2686 219.559 57.7559 219.559 56.9209C219.559 56.0859 218.827 55.5439 217.728 55.5439Z" fill="#0A9FA8"/>
</g>
<defs>
<clipPath id="clip0_1182_4717">
<rect width="328" height="69" fill="white"/>
</clipPath>
<clipPath id="clip1_1182_4717">
<rect width="187" height="42" fill="white" transform="translate(70.5)"/>
</clipPath>
</defs>
</svg>
