<svg width="24" height="24" viewBox="0 0 24 24" fill="none" xmlns="http://www.w3.org/2000/svg">
<path fill-rule="evenodd" clip-rule="evenodd" d="M19.8107 21.3107C19.8107 21.3107 19.3713 21.75 18.75 21.75H5.25C5.25 21.75 4.62868 21.75 4.18934 21.3107C4.18934 21.3107 3.75 20.8713 3.75 20.25V3.75C3.75 3.75 3.75 3.12868 4.18934 2.68934C4.18934 2.68934 4.62868 2.25 5.25 2.25H14.25C14.4489 2.25 14.6397 2.32902 14.7803 2.46967L20.0303 7.71967C20.171 7.86032 20.25 8.05109 20.25 8.25V20.25C20.25 20.25 20.25 20.8713 19.8107 21.3107ZM18.75 20.25V8.56066L13.9393 3.75H5.25V20.25H18.75Z" fill="#A1A7A7"/>
<path d="M14.25 9H19.5C19.9142 9 20.25 8.66421 20.25 8.25C20.25 7.83579 19.9142 7.5 19.5 7.5H15V3C15 2.58579 14.6642 2.25 14.25 2.25C13.8358 2.25 13.5 2.58579 13.5 3V8.25C13.5 8.66421 13.8358 9 14.25 9Z" fill="#A1A7A7"/>
<path d="M16.0629 14.2936L13.9492 13.3922C13.8401 13.3433 13.7204 13.323 13.6013 13.3333C13.4823 13.3435 13.3678 13.384 13.2687 13.4508L12.1375 14.2034C11.448 13.8686 10.8899 13.3136 10.5511 12.626L11.2992 11.4813C11.3656 11.3821 11.4061 11.2679 11.4171 11.1491C11.4281 11.0302 11.4093 10.9105 11.3623 10.8008L10.4564 8.68713C10.3932 8.5444 10.2862 8.42552 10.1509 8.34773C10.0155 8.26994 9.85896 8.23727 9.70381 8.25448C9.09522 8.3342 8.53628 8.63222 8.13091 9.09312C7.72555 9.55402 7.50135 10.1464 7.5 10.7602C7.5 14.3386 10.4114 17.25 13.9898 17.25C14.6036 17.2486 15.196 17.0244 15.6569 16.6191C16.1178 16.2137 16.4158 15.6548 16.4955 15.0462C16.5127 14.891 16.4801 14.7345 16.4023 14.5991C16.3245 14.4638 16.2056 14.3568 16.0629 14.2936Z" fill="#A1A7A7"/>
</svg>
