<svg width="24" height="24" viewBox="0 0 24 24" fill="none" xmlns="http://www.w3.org/2000/svg">
<path d="M20.8125 14.8492L16.4156 12.9742C16.1888 12.8725 15.9397 12.8303 15.692 12.8516C15.4443 12.8729 15.2062 12.9571 15 13.096L12.6469 14.6617C11.2127 13.9651 10.0516 12.8106 9.34687 11.3804L10.9031 8.99915C11.0412 8.79279 11.1255 8.55521 11.1484 8.308C11.1713 8.06078 11.1321 7.81175 11.0344 7.58353L9.15 3.18665C9.01851 2.88976 8.79586 2.64247 8.51435 2.48064C8.23284 2.31882 7.90711 2.25087 7.58438 2.28665C6.31837 2.4525 5.15566 3.07244 4.31243 4.03121C3.46919 4.98998 3.00281 6.22233 3 7.49915C3 14.9429 9.05625 20.9992 16.5 20.9992C17.7768 20.9963 19.0092 20.53 19.9679 19.6867C20.9267 18.8435 21.5467 17.6808 21.7125 16.4148C21.7483 16.092 21.6803 15.7663 21.5185 15.4848C21.3567 15.2033 21.1094 14.9806 20.8125 14.8492Z" fill="#00A2AA"/>
<path d="M14.7563 4.47101C15.8979 4.78291 16.9384 5.38707 17.7753 6.2239C18.6121 7.06072 19.2162 8.10128 19.5281 9.24289C19.5695 9.40317 19.6628 9.54526 19.7933 9.647C19.9239 9.74875 20.0845 9.80444 20.25 9.80539C20.3166 9.80526 20.3829 9.7958 20.4469 9.77726C20.5422 9.75232 20.6316 9.7086 20.7099 9.64866C20.7881 9.58872 20.8536 9.51378 20.9025 9.42821C20.9513 9.34265 20.9827 9.24819 20.9946 9.15036C21.0065 9.05254 20.9988 8.95332 20.9719 8.85851C20.5969 7.46041 19.8607 6.18557 18.8371 5.16202C17.8136 4.13847 16.5387 3.40224 15.1406 3.02726C15.0428 2.99162 14.9386 2.97674 14.8347 2.98357C14.7308 2.9904 14.6295 3.01879 14.5372 3.06692C14.4448 3.11506 14.3636 3.1819 14.2985 3.26317C14.2334 3.34445 14.1859 3.43839 14.1592 3.539C14.1324 3.63962 14.1268 3.74471 14.1429 3.84759C14.1589 3.95046 14.1962 4.04887 14.2524 4.13654C14.3086 4.22422 14.3824 4.29923 14.4691 4.35682C14.5559 4.4144 14.6537 4.45329 14.7563 4.47101Z" fill="#00A2AA"/>
<path d="M13.9781 7.3679C14.6127 7.54161 15.1911 7.87762 15.6563 8.34284C16.1215 8.80806 16.4575 9.38645 16.6312 10.021C16.6711 10.1821 16.764 10.3251 16.8949 10.4271C17.0258 10.5291 17.1872 10.5842 17.3531 10.5835C17.4167 10.5841 17.48 10.5747 17.5406 10.5554C17.6368 10.5315 17.7272 10.4885 17.8065 10.429C17.8857 10.3695 17.9523 10.2947 18.0021 10.209C18.0519 10.1234 18.084 10.0286 18.0966 9.93023C18.1091 9.83191 18.1018 9.73208 18.075 9.63665C17.8382 8.74557 17.3702 7.93289 16.7182 7.28093C16.0663 6.62898 15.2536 6.16091 14.3625 5.92415C14.2647 5.88851 14.1605 5.87363 14.0566 5.88046C13.9527 5.88729 13.8513 5.91567 13.759 5.96381C13.6667 6.01195 13.5854 6.07879 13.5203 6.16006C13.4552 6.24134 13.4078 6.33527 13.381 6.43589C13.3542 6.53651 13.3487 6.6416 13.3647 6.74448C13.3808 6.84735 13.4181 6.94576 13.4742 7.03343C13.5304 7.1211 13.6042 7.19612 13.691 7.25371C13.7777 7.31129 13.8755 7.35018 13.9781 7.3679Z" fill="#00A2AA"/>
</svg>
