<svg width="24" height="24" viewBox="0 0 24 24" fill="none" xmlns="http://www.w3.org/2000/svg">
<path d="M14.25 2.25001C14.4495 2.24889 14.6413 2.32655 14.7842 2.46583L20.0342 7.71583C20.1735 7.8587 20.2511 8.05048 20.25 8.25001V20.25C20.25 20.6478 20.0918 21.0293 19.8105 21.3106C19.5292 21.5919 19.1478 21.75 18.75 21.75H5.25C4.85218 21.75 4.47076 21.5919 4.18945 21.3106C3.90816 21.0293 3.75 20.6478 3.75 20.25V3.75001C3.75001 3.3522 3.90815 2.97076 4.18945 2.68947C4.47076 2.40817 4.85218 2.25001 5.25 2.25001H14.25ZM9.7041 8.25489C9.09558 8.33461 8.53621 8.63198 8.13086 9.09279C7.7255 9.55369 7.50135 10.147 7.5 10.7608C7.50026 14.3389 10.412 17.25 13.9902 17.25C14.6039 17.2485 15.1964 17.0244 15.6572 16.6192C16.118 16.2138 16.4154 15.6544 16.4951 15.0459C16.5122 14.891 16.4799 14.7348 16.4023 14.5996C16.3245 14.4643 16.2052 14.3572 16.0625 14.294L13.9492 13.3926C13.8402 13.3437 13.7206 13.3228 13.6016 13.333C13.4825 13.3433 13.3677 13.3844 13.2686 13.4512L12.1377 14.2031C11.4483 13.8683 10.8895 13.3135 10.5508 12.626L11.2988 11.4815C11.3651 11.3823 11.4059 11.2681 11.417 11.1494C11.428 11.0306 11.4093 10.9105 11.3623 10.8008L10.4561 8.68751C10.3928 8.54479 10.2857 8.42546 10.1504 8.34767C10.0152 8.27008 9.85901 8.23777 9.7041 8.25489ZM14.25 8.25001H18.375L14.25 4.12501V8.25001Z" fill="#00A2AA"/>
</svg>
