<svg width="20" height="20" viewBox="0 0 20 20" fill="none" xmlns="http://www.w3.org/2000/svg">
<path d="M17.3438 12.3749L13.6797 10.8124C13.4906 10.7277 13.2831 10.6926 13.0767 10.7103C12.8703 10.7281 12.6718 10.7982 12.5 10.914L10.5391 12.2187C9.34394 11.6382 8.37631 10.6761 7.78906 9.48432L9.08594 7.49994C9.20097 7.32797 9.27123 7.12999 9.29033 6.92398C9.30943 6.71797 9.27677 6.51045 9.19531 6.32026L7.625 2.6562C7.51542 2.40878 7.32989 2.20271 7.09529 2.06785C6.8607 1.933 6.58925 1.87638 6.32031 1.9062C5.26531 2.0444 4.29638 2.56102 3.59369 3.35999C2.891 4.15896 2.50235 5.18593 2.5 6.24995C2.5 12.4531 7.54688 17.4999 13.75 17.4999C14.814 17.4976 15.841 17.109 16.64 16.4063C17.4389 15.7036 17.9555 14.7346 18.0938 13.6796C18.1236 13.4107 18.0669 13.1392 17.9321 12.9046C17.7972 12.6701 17.5912 12.4845 17.3438 12.3749Z" fill="white"/>
<path d="M12.2969 3.7265C13.2482 3.98641 14.1154 4.48988 14.8127 5.18723C15.5101 5.88459 16.0135 6.75172 16.2734 7.70306C16.3079 7.83662 16.3856 7.95503 16.4944 8.03982C16.6033 8.12461 16.7371 8.17102 16.875 8.17181C16.9305 8.1717 16.9857 8.16382 17.0391 8.14837C17.1185 8.12758 17.193 8.09115 17.2582 8.0412C17.3234 7.99125 17.378 7.9288 17.4187 7.8575C17.4595 7.78619 17.4856 7.70747 17.4955 7.62595C17.5054 7.54443 17.499 7.46175 17.4766 7.38275C17.1641 6.21766 16.5506 5.15529 15.6976 4.30233C14.8447 3.44937 13.7823 2.83585 12.6172 2.52337C12.5357 2.49367 12.4489 2.48127 12.3623 2.48696C12.2757 2.49265 12.1912 2.51631 12.1143 2.55642C12.0374 2.59654 11.9696 2.65223 11.9154 2.71996C11.8612 2.78769 11.8216 2.86597 11.7993 2.94982C11.777 3.03367 11.7724 3.12124 11.7857 3.20697C11.7991 3.29271 11.8302 3.37471 11.877 3.44777C11.9238 3.52083 11.9853 3.58334 12.0576 3.63133C12.1299 3.67932 12.2114 3.71173 12.2969 3.7265Z" fill="white"/>
<path d="M11.6484 6.14057C12.1772 6.28532 12.6592 6.56533 13.0469 6.95302C13.4346 7.3407 13.7146 7.82269 13.8594 8.35151C13.8926 8.48574 13.97 8.60491 14.0791 8.68991C14.1882 8.77491 14.3226 8.82082 14.4609 8.82026C14.5139 8.82078 14.5667 8.81286 14.6172 8.79682C14.6973 8.77689 14.7727 8.74107 14.8387 8.69149C14.9048 8.64191 14.9602 8.57958 15.0017 8.50818C15.0433 8.43678 15.07 8.35778 15.0805 8.27585C15.0909 8.19391 15.0848 8.11072 15.0625 8.0312C14.8652 7.28862 14.4751 6.61139 13.9318 6.06809C13.3885 5.5248 12.7113 5.13475 11.9687 4.93744C11.8872 4.90774 11.8004 4.89534 11.7138 4.90103C11.6272 4.90672 11.5428 4.93038 11.4658 4.97049C11.3889 5.01061 11.3212 5.06631 11.2669 5.13404C11.2127 5.20177 11.1732 5.28005 11.1508 5.36389C11.1285 5.44774 11.1239 5.53532 11.1373 5.62105C11.1506 5.70678 11.1817 5.78878 11.2285 5.86184C11.2753 5.9349 11.3369 5.99742 11.4091 6.04541C11.4814 6.09339 11.5629 6.1258 11.6484 6.14057Z" fill="white"/>
</svg>
