<svg width="48" height="48" viewBox="0 0 48 48" fill="none" xmlns="http://www.w3.org/2000/svg">
<path fill-rule="evenodd" clip-rule="evenodd" d="M37.2028 1C37.2028 1 38.3614 1 39.1807 1.80505C39.1807 1.80505 40 2.61011 40 3.74863V44.2514C40 44.2514 40 45.3899 39.1807 46.195C39.1807 46.195 38.3614 47 37.2028 47H10.7972C10.7972 47 9.63856 47 8.81928 46.195C8.81928 46.195 8 45.3899 8 44.2514V3.74863C8 3.74863 8 2.61011 8.81928 1.80505C8.81928 1.80505 9.63856 1 10.7972 1L37.2028 1ZM37.2028 2.83242L10.7972 2.83242C10.7972 2.83242 10.411 2.83242 10.1379 3.10077C10.1379 3.10077 9.8648 3.36912 9.8648 3.74863V44.2514C9.8648 44.2514 9.8648 44.6309 10.1379 44.8992C10.1379 44.8992 10.411 45.1676 10.7972 45.1676H37.2028C37.2028 45.1676 37.589 45.1676 37.8621 44.8992C37.8621 44.8992 38.1352 44.6309 38.1352 44.2514V3.74863C38.1352 3.74863 38.1352 3.36912 37.8621 3.10077C37.8621 3.10077 37.589 2.83242 37.2028 2.83242Z" fill="#2F343B"/>
<path d="M26.2191 6.03915C26.2191 6.79811 25.5929 7.41346 24.8205 7.41346C24.0481 7.41346 23.4219 6.79811 23.4219 6.03915C23.4219 5.28019 24.0481 4.66484 24.8205 4.66484C25.5929 4.66484 26.2191 5.28019 26.2191 6.03915Z" fill="#2F343B"/>
<path d="M39.5 3.74902C39.5 3.29927 39.3376 2.90148 39.1611 2.60547C39.0741 2.45944 38.9868 2.3442 38.9229 2.2666C38.8911 2.22807 38.8652 2.19953 38.8486 2.18164C38.8404 2.17272 38.8343 2.1664 38.8311 2.16309L38.8301 2.16211L38.7041 2.04883C38.4036 1.80058 38.0571 1.66129 37.7598 1.58496C37.5921 1.54195 37.4463 1.52029 37.3447 1.50977C37.2943 1.50455 37.2552 1.50214 37.2305 1.50098C37.2185 1.50041 37.2099 1.50011 37.2051 1.5H10.7969C10.333 1.50008 9.92511 1.66206 9.62305 1.83594C9.4737 1.92192 9.35551 2.00738 9.27637 2.07031C9.23695 2.10165 9.20768 2.12729 9.18945 2.14355C9.18063 2.15143 9.1743 2.15696 9.1709 2.16016L9.16895 2.16113L9.16992 2.16211C8.84446 2.48197 8.67387 2.87633 8.58594 3.20703C8.54247 3.37057 8.52038 3.51244 8.50977 3.61133C8.50448 3.66055 8.50215 3.69874 8.50098 3.72266C8.50041 3.7343 8.50011 3.74254 8.5 3.74707V44.251C8.5 44.7007 8.6624 45.0985 8.83887 45.3945C8.92594 45.5406 9.01325 45.6558 9.07715 45.7334C9.10888 45.7719 9.13484 45.8005 9.15137 45.8184C9.15962 45.8273 9.16573 45.8336 9.16895 45.8369L9.16992 45.8379L9.2959 45.9512C9.5964 46.1994 9.94286 46.3387 10.2402 46.415C10.4079 46.458 10.5537 46.4797 10.6553 46.4902C10.7057 46.4954 10.7448 46.4979 10.7695 46.499C10.7815 46.4996 10.7901 46.4999 10.7949 46.5H37.2031C37.667 46.4999 38.0749 46.3379 38.377 46.1641C38.5263 46.0781 38.6445 45.9926 38.7236 45.9297C38.763 45.8983 38.7923 45.8727 38.8105 45.8564C38.8194 45.8486 38.8257 45.843 38.8291 45.8398L38.8301 45.8379C39.1555 45.518 39.3261 45.1237 39.4141 44.793C39.4575 44.6294 39.4796 44.4876 39.4902 44.3887C39.4955 44.3394 39.4979 44.3013 39.499 44.2773C39.4996 44.2657 39.4999 44.2575 39.5 44.2529V3.74902ZM10.4863 44.541C10.4889 44.5432 10.4932 44.546 10.498 44.5498C10.5139 44.5624 10.5396 44.5808 10.5723 44.5996C10.6412 44.6393 10.7192 44.6679 10.7969 44.668H37.1963C37.1989 44.6678 37.2057 44.6671 37.2158 44.666C37.2366 44.6639 37.2685 44.659 37.3057 44.6494C37.3829 44.6296 37.4558 44.5957 37.5088 44.5449C37.511 44.5424 37.5143 44.5384 37.5186 44.5332C37.5313 44.5178 37.5505 44.4935 37.5693 44.4619C37.6093 44.395 37.6348 44.3212 37.6348 44.251V3.75293C37.6348 3.75406 37.6357 3.75525 37.6357 3.75586C37.6356 3.75347 37.6348 3.74726 37.6338 3.73828C37.6317 3.71892 37.6275 3.6884 37.6182 3.65332C37.5988 3.58059 37.5648 3.51127 37.5137 3.45996C37.5111 3.45775 37.5071 3.4543 37.502 3.4502C37.4861 3.43758 37.4604 3.41923 37.4277 3.40039C37.3588 3.36071 37.2808 3.33211 37.2031 3.33203H10.8037C10.8011 3.33215 10.7943 3.33294 10.7842 3.33398C10.7634 3.33613 10.7315 3.34105 10.6943 3.35059C10.6171 3.37041 10.5432 3.40329 10.4902 3.4541C10.488 3.45658 10.4857 3.46157 10.4814 3.4668C10.4687 3.48224 10.4495 3.50653 10.4307 3.53809C10.3907 3.60505 10.3652 3.67877 10.3652 3.74902V44.2471C10.3652 44.2459 10.3643 44.2447 10.3643 44.2441C10.3644 44.2465 10.3652 44.2527 10.3662 44.2617C10.3683 44.2811 10.3725 44.3116 10.3818 44.3467C10.401 44.4185 10.4343 44.487 10.4844 44.5381L10.4854 44.5391L10.4863 44.541ZM25.7188 6.03906C25.7187 5.5645 25.3248 5.16504 24.8203 5.16504C24.3159 5.16514 23.9219 5.56457 23.9219 6.03906C23.9219 6.51359 24.3159 6.91298 24.8203 6.91309C25.3248 6.91309 25.7188 6.51366 25.7188 6.03906ZM10.4883 3.45703L10.4893 3.45605L10.4902 3.4541L10.4883 3.45703ZM26.7188 6.03906C26.7188 7.08238 25.8605 7.91309 24.8203 7.91309C23.7802 7.91298 22.9219 7.08232 22.9219 6.03906C22.9219 4.99585 23.7802 4.16515 24.8203 4.16504C25.8605 4.16504 26.7187 4.99578 26.7188 6.03906ZM38.6348 44.251C38.6348 44.5602 38.5244 44.8115 38.4277 44.9736C38.3785 45.0562 38.3294 45.1223 38.291 45.1689C38.2716 45.1925 38.2546 45.2121 38.2412 45.2266C38.2346 45.2337 38.2284 45.2393 38.2236 45.2441C38.2214 45.2465 38.2196 45.2492 38.2178 45.251L38.2139 45.2549L38.2129 45.2559C37.9931 45.4718 37.7375 45.5712 37.5547 45.6182C37.4613 45.6421 37.3795 45.6549 37.3193 45.6611C37.289 45.6643 37.2627 45.6651 37.2432 45.666C37.2336 45.6665 37.2254 45.6668 37.2188 45.667C37.2153 45.6671 37.2116 45.6679 37.209 45.668H10.7969C10.4886 45.6679 10.2372 45.5612 10.0732 45.4668C9.98956 45.4186 9.92238 45.3697 9.875 45.332C9.85144 45.3133 9.83193 45.2972 9.81738 45.2842C9.81004 45.2776 9.80383 45.2713 9.79883 45.2666C9.79639 45.2643 9.79386 45.2625 9.79199 45.2607C9.7911 45.2599 9.7908 45.2585 9.79004 45.2578L9.78809 45.2568L9.78711 45.2559C9.56683 45.0393 9.46467 44.7863 9.41602 44.6035C9.39123 44.5103 9.37853 44.4284 9.37207 44.3682C9.36884 44.338 9.36718 44.3126 9.36621 44.293C9.36573 44.2832 9.3654 44.2745 9.36523 44.2676V3.74902C9.36523 3.43977 9.47564 3.18846 9.57227 3.02637C9.62152 2.94377 9.67058 2.87771 9.70898 2.83105C9.72836 2.80752 9.74544 2.78788 9.75879 2.77344C9.76538 2.7663 9.77162 2.76075 9.77637 2.75586C9.77864 2.75352 9.78043 2.75083 9.78223 2.74902L9.78613 2.74512L9.78711 2.74414L9.87109 2.66797C10.0697 2.50367 10.2854 2.42293 10.4453 2.38184C10.5387 2.35788 10.6205 2.34511 10.6807 2.33887C10.711 2.33573 10.7373 2.33491 10.7568 2.33398C10.7664 2.33354 10.7746 2.33316 10.7812 2.33301C10.7847 2.33293 10.7884 2.33206 10.791 2.33203H37.2031C37.5114 2.33211 37.7628 2.4388 37.9268 2.5332C38.0104 2.58137 38.0776 2.63029 38.125 2.66797C38.1486 2.68672 38.1681 2.70284 38.1826 2.71582C38.19 2.72238 38.1962 2.7287 38.2012 2.7334C38.2036 2.73568 38.2061 2.73746 38.208 2.73926C38.2089 2.74011 38.2092 2.74145 38.21 2.74219L38.2119 2.74316L38.2129 2.74414C38.4332 2.96068 38.5353 3.21367 38.584 3.39648C38.6088 3.48971 38.6215 3.57164 38.6279 3.63184C38.6312 3.66197 38.6328 3.68739 38.6338 3.70703C38.6343 3.71682 38.6346 3.72555 38.6348 3.73242V44.251ZM40.5 44.251V44.2764C40.4997 44.2889 40.4991 44.3056 40.498 44.3262C40.496 44.3677 40.4919 44.4251 40.4844 44.4951C40.4694 44.6349 40.4398 44.8282 40.3809 45.0498C40.2786 45.4346 40.0831 45.9248 39.7051 46.3662L39.5312 46.5518L39.5303 46.5527L39.5283 46.5537L39.5137 46.5684C39.5045 46.5769 39.492 46.5887 39.4766 46.6025C39.4455 46.6303 39.4012 46.6678 39.3457 46.7119C39.2351 46.7999 39.0762 46.916 38.876 47.0312C38.4789 47.2598 37.8976 47.4999 37.2031 47.5H10.7725C10.76 47.4997 10.7432 47.499 10.7227 47.498C10.6809 47.4961 10.6226 47.4917 10.5518 47.4844C10.4106 47.4697 10.2153 47.4413 9.99121 47.3838C9.60242 47.284 9.10564 47.0926 8.65723 46.7217L8.46875 46.5518L8.46582 46.5488C8.46484 46.5479 8.46419 46.5462 8.46289 46.5449C8.45999 46.542 8.45557 46.5387 8.45117 46.5342C8.4424 46.5252 8.43108 46.5123 8.41699 46.4971C8.38875 46.4665 8.35051 46.4236 8.30566 46.3691C8.21603 46.2603 8.09809 46.1035 7.98047 45.9062C7.74729 45.5151 7.5 44.9397 7.5 44.251V3.74902V3.72363C7.5003 3.7111 7.50095 3.69437 7.50195 3.67383C7.50398 3.63235 7.50811 3.57494 7.51562 3.50488C7.53062 3.36515 7.56022 3.17184 7.61914 2.9502C7.73604 2.51046 7.9751 1.93332 8.46875 1.44824L8.46973 1.44727L8.47168 1.44629L8.48633 1.43164C8.49547 1.42306 8.50798 1.41126 8.52344 1.39746C8.55454 1.3697 8.59881 1.33221 8.6543 1.28809C8.76495 1.20009 8.9238 1.084 9.12402 0.96875C9.52112 0.740174 10.1024 0.500076 10.7969 0.5H37.2275C37.24 0.500284 37.2568 0.500984 37.2773 0.501953C37.3191 0.503927 37.3774 0.508291 37.4482 0.515625C37.5894 0.53025 37.7847 0.558689 38.0088 0.616211C38.3976 0.716001 38.8944 0.907356 39.3428 1.27832L39.5312 1.44824L39.5342 1.45117C39.5352 1.45215 39.5358 1.45378 39.5371 1.45508C39.54 1.458 39.5444 1.4613 39.5488 1.46582C39.5576 1.47485 39.5689 1.48769 39.583 1.50293C39.6113 1.53349 39.6495 1.57641 39.6943 1.63086C39.784 1.7397 39.9019 1.89647 40.0195 2.09375C40.2527 2.48489 40.5 3.06026 40.5 3.74902V44.251Z" fill="#2F343B"/>
<path d="M3 19C3 17.3431 4.34315 16 6 16H42C43.6569 16 45 17.3431 45 19V31C45 32.6569 43.6569 34 42 34H6C4.34315 34 3 32.6569 3 31V19Z" fill="white"/>
<path d="M43.75 19C43.75 18.0335 42.9665 17.25 42 17.25H6C5.0335 17.25 4.25 18.0335 4.25 19V31C4.25 31.9665 5.0335 32.75 6 32.75H42C42.9665 32.75 43.75 31.9665 43.75 31V19ZM46.25 31C46.25 33.3472 44.3472 35.25 42 35.25H6C3.65279 35.25 1.75 33.3472 1.75 31V19C1.75 16.6528 3.65279 14.75 6 14.75H42C44.3472 14.75 46.25 16.6528 46.25 19V31Z" fill="#2F343B"/>
<path d="M12.3876 21.866V25.3302C12.3876 25.8085 12.7868 26.1962 13.2791 26.1962C13.7715 26.1962 14.1706 25.8085 14.1706 25.3302V21.866C14.1706 21.3877 13.7715 21 13.2791 21C12.7868 21 12.3876 21.3877 12.3876 21.866Z" fill="#0A9FA8"/>
<path d="M9.61543 25.0819L13.003 26.1536C13.0922 26.1818 13.1854 26.1962 13.2791 26.1962C13.2976 26.1962 13.316 26.1956 13.3344 26.1945C13.6994 26.1724 14.0135 25.9361 14.1267 25.5983C14.1558 25.5117 14.1706 25.4212 14.1706 25.3302C14.1706 25.3122 14.17 25.2943 14.1688 25.2764C14.1461 24.9218 13.9028 24.6167 13.5551 24.5067L10.1675 23.4349C10.0784 23.4067 9.98522 23.3924 9.89147 23.3924C9.87301 23.3924 9.85455 23.3929 9.83612 23.3941C9.47114 23.4161 9.15705 23.6525 9.04382 23.9902C9.01479 24.0768 9 24.1673 9 24.2584C9 24.2764 9.00057 24.2943 9.00172 24.3122C9.02443 24.6667 9.26772 24.9719 9.61543 25.0819Z" fill="#0A9FA8"/>
<path d="M14.0004 25.8392C14.0089 25.8278 14.0174 25.8159 14.0253 25.8041C14.1201 25.6632 14.1706 25.4985 14.1706 25.3302C14.1706 25.0528 14.0339 24.7922 13.8028 24.6293C13.7911 24.621 13.7791 24.613 13.767 24.6053C13.6219 24.5132 13.4524 24.4641 13.2791 24.4641C12.9936 24.4641 12.7254 24.597 12.5577 24.8214L10.4628 27.6251C10.3522 27.7731 10.2927 27.9512 10.2927 28.134C10.2927 28.1496 10.2931 28.1652 10.294 28.1808C10.3085 28.4413 10.4432 28.6816 10.6605 28.8348C10.8127 28.9422 10.996 29 11.1842 29L11.195 28.9999C11.2382 28.9994 11.2813 28.9959 11.324 28.9893C11.5575 28.9532 11.7667 28.8286 11.9056 28.6427L14.0004 25.8392Z" fill="#0A9FA8"/>
<path d="M14.0006 24.8214C13.9911 24.8088 13.9813 24.7964 13.9712 24.7843C13.8019 24.5818 13.5477 24.4641 13.2791 24.4641C13.091 24.4641 12.9077 24.522 12.7554 24.6293C12.7424 24.6385 12.7297 24.648 12.7172 24.6578C12.5087 24.8223 12.3876 25.0693 12.3876 25.3302C12.3876 25.5129 12.4472 25.691 12.5577 25.8389L14.6524 28.6424C14.7913 28.8283 15.0007 28.9532 15.2342 28.9893C15.2805 28.9964 15.3272 29 15.3741 29C15.385 29 15.396 28.9998 15.407 28.9994C15.5838 28.9931 15.7546 28.9358 15.8978 28.8348C16.1288 28.6719 16.2655 28.4113 16.2655 28.134C16.2655 28.1199 16.2652 28.1058 16.2645 28.0917C16.256 27.9235 16.1973 27.7615 16.0955 27.6252L14.0006 24.8214Z" fill="#0A9FA8"/>
<path d="M16.3907 23.4349L13.0031 24.5067C12.636 24.6228 12.3876 24.9552 12.3876 25.3302L12.3877 25.3403C12.3888 25.428 12.4035 25.5149 12.4315 25.5983C12.551 25.9548 12.8931 26.1962 13.2791 26.1962L13.2896 26.1961C13.3798 26.1951 13.4694 26.1807 13.5552 26.1536L16.9428 25.0819C17.3098 24.9658 17.5582 24.6334 17.5582 24.2584L17.5581 24.2483C17.5571 24.1606 17.5423 24.0736 17.5144 23.9902C17.3948 23.6337 17.0527 23.3924 16.6667 23.3924L16.6562 23.3924C16.566 23.3935 16.4765 23.4078 16.3907 23.4349Z" fill="#0A9FA8"/>
<path d="M23.0853 21.866V25.3302C23.0853 25.8085 23.4844 26.1962 23.9768 26.1962C24.4691 26.1962 24.8683 25.8085 24.8683 25.3302V21.866C24.8683 21.3877 24.4691 21 23.9768 21C23.4844 21 23.0853 21.3877 23.0853 21.866Z" fill="#0A9FA8"/>
<path d="M20.3131 25.0819L23.7007 26.1536C23.7898 26.1818 23.883 26.1962 23.9768 26.1962C23.9953 26.1962 24.0137 26.1956 24.0321 26.1945C24.3971 26.1724 24.7112 25.9361 24.8244 25.5983C24.8534 25.5117 24.8683 25.4212 24.8683 25.3302C24.8683 25.3122 24.8676 25.2943 24.8665 25.2764C24.8438 24.9218 24.6005 24.6167 24.2528 24.5067L20.8652 23.4349C20.7761 23.4067 20.6829 23.3924 20.5891 23.3924C20.5707 23.3924 20.5522 23.3929 20.5338 23.3941C20.1688 23.4161 19.8547 23.6525 19.7415 23.9902C19.7125 24.0768 19.6977 24.1673 19.6977 24.2584C19.6977 24.2764 19.6982 24.2943 19.6994 24.3122C19.7221 24.6667 19.9654 24.9719 20.3131 25.0819Z" fill="#0A9FA8"/>
<path d="M24.6981 25.8392C24.7066 25.8278 24.715 25.8159 24.723 25.8041C24.8178 25.6632 24.8683 25.4985 24.8683 25.3302C24.8683 25.0528 24.7315 24.7922 24.5005 24.6293C24.4887 24.621 24.4768 24.613 24.4646 24.6053C24.3196 24.5132 24.1501 24.4641 23.9768 24.4641C23.6913 24.4641 23.4231 24.597 23.2554 24.8214L21.1605 27.6251C21.0499 27.7731 20.9904 27.9512 20.9904 28.134C20.9904 28.1496 20.9908 28.1652 20.9917 28.1808C21.0062 28.4413 21.1408 28.6816 21.3582 28.8348C21.5104 28.9422 21.6937 29 21.8818 29L21.8927 28.9999C21.9359 28.9994 21.979 28.9959 22.0217 28.9893C22.2552 28.9532 22.4644 28.8286 22.6033 28.6427L24.6981 25.8392Z" fill="#0A9FA8"/>
<path d="M24.6982 24.8214C24.6888 24.8088 24.679 24.7964 24.6689 24.7843C24.4996 24.5818 24.2454 24.4641 23.9768 24.4641C23.7887 24.4641 23.6054 24.522 23.4531 24.6293C23.4401 24.6385 23.4274 24.648 23.4149 24.6578C23.2064 24.8223 23.0853 25.0693 23.0853 25.3302C23.0853 25.5129 23.1448 25.691 23.2553 25.8389L25.3501 28.6424C25.489 28.8283 25.6984 28.9532 25.9319 28.9893C25.9782 28.9964 26.0249 29 26.0717 29C26.0827 29 26.0937 28.9998 26.1047 28.9994C26.2814 28.9931 26.4523 28.9358 26.5954 28.8348C26.8265 28.6719 26.9632 28.4113 26.9632 28.134C26.9632 28.1199 26.9629 28.1058 26.9622 28.0917C26.9537 27.9235 26.895 27.7615 26.7932 27.6252L24.6982 24.8214Z" fill="#0A9FA8"/>
<path d="M27.0883 23.4349L23.7007 24.5067C23.3337 24.6228 23.0853 24.9552 23.0853 25.3302L23.0854 25.3403C23.0864 25.428 23.1012 25.5149 23.1291 25.5983C23.2487 25.9548 23.5908 26.1962 23.9768 26.1962L23.9872 26.1961C24.0775 26.1951 24.167 26.1807 24.2528 26.1536L27.6404 25.0819C28.0075 24.9658 28.2559 24.6334 28.2559 24.2584L28.2558 24.2483C28.2547 24.1606 28.24 24.0736 28.212 23.9902C28.0925 23.6337 27.7504 23.3924 27.3644 23.3924L27.3539 23.3924C27.2637 23.3935 27.1741 23.4078 27.0883 23.4349Z" fill="#0A9FA8"/>
<path d="M23.0853 21.866V25.3302C23.0853 25.8085 23.4844 26.1962 23.9768 26.1962C24.4691 26.1962 24.8683 25.8085 24.8683 25.3302V21.866C24.8683 21.3877 24.4691 21 23.9768 21C23.4844 21 23.0853 21.3877 23.0853 21.866Z" fill="#0A9FA8"/>
<path d="M20.3131 25.0819L23.7007 26.1536C23.7898 26.1818 23.883 26.1962 23.9768 26.1962C23.9953 26.1962 24.0137 26.1956 24.0321 26.1945C24.3971 26.1724 24.7112 25.9361 24.8244 25.5983C24.8534 25.5117 24.8683 25.4212 24.8683 25.3302C24.8683 25.3122 24.8676 25.2943 24.8665 25.2764C24.8438 24.9218 24.6005 24.6167 24.2528 24.5067L20.8652 23.4349C20.7761 23.4067 20.6829 23.3924 20.5891 23.3924C20.5707 23.3924 20.5522 23.3929 20.5338 23.3941C20.1688 23.4161 19.8547 23.6525 19.7415 23.9902C19.7125 24.0768 19.6977 24.1673 19.6977 24.2584C19.6977 24.2764 19.6982 24.2943 19.6994 24.3122C19.7221 24.6667 19.9654 24.9719 20.3131 25.0819Z" fill="#0A9FA8"/>
<path d="M24.6981 25.8392C24.7066 25.8278 24.715 25.8159 24.723 25.8041C24.8178 25.6632 24.8683 25.4985 24.8683 25.3302C24.8683 25.0528 24.7315 24.7922 24.5005 24.6293C24.4887 24.621 24.4768 24.613 24.4646 24.6053C24.3196 24.5132 24.1501 24.4641 23.9768 24.4641C23.6913 24.4641 23.4231 24.597 23.2554 24.8214L21.1605 27.6251C21.0499 27.7731 20.9904 27.9512 20.9904 28.134C20.9904 28.1496 20.9908 28.1652 20.9917 28.1808C21.0062 28.4413 21.1408 28.6816 21.3582 28.8348C21.5104 28.9422 21.6937 29 21.8818 29L21.8927 28.9999C21.9359 28.9994 21.979 28.9959 22.0217 28.9893C22.2552 28.9532 22.4644 28.8286 22.6033 28.6427L24.6981 25.8392Z" fill="#0A9FA8"/>
<path d="M24.6982 24.8214C24.6888 24.8088 24.679 24.7964 24.6689 24.7843C24.4996 24.5818 24.2454 24.4641 23.9768 24.4641C23.7887 24.4641 23.6054 24.522 23.4531 24.6293C23.4401 24.6385 23.4274 24.648 23.4149 24.6578C23.2064 24.8223 23.0853 25.0693 23.0853 25.3302C23.0853 25.5129 23.1448 25.691 23.2553 25.8389L25.3501 28.6424C25.489 28.8283 25.6984 28.9532 25.9319 28.9893C25.9782 28.9964 26.0249 29 26.0717 29C26.0827 29 26.0937 28.9998 26.1047 28.9994C26.2814 28.9931 26.4523 28.9358 26.5954 28.8348C26.8265 28.6719 26.9632 28.4113 26.9632 28.134C26.9632 28.1199 26.9629 28.1058 26.9622 28.0917C26.9537 27.9235 26.895 27.7615 26.7932 27.6252L24.6982 24.8214Z" fill="#0A9FA8"/>
<path d="M27.0883 23.4349L23.7007 24.5067C23.3337 24.6228 23.0853 24.9552 23.0853 25.3302L23.0854 25.3403C23.0864 25.428 23.1012 25.5149 23.1291 25.5983C23.2487 25.9548 23.5908 26.1962 23.9768 26.1962L23.9872 26.1961C24.0775 26.1951 24.167 26.1807 24.2528 26.1536L27.6404 25.0819C28.0075 24.9658 28.2559 24.6334 28.2559 24.2584L28.2558 24.2483C28.2547 24.1606 28.24 24.0736 28.212 23.9902C28.0925 23.6337 27.7504 23.3924 27.3644 23.3924L27.3539 23.3924C27.2637 23.3935 27.1741 23.4078 27.0883 23.4349Z" fill="#0A9FA8"/>
<path d="M33.8295 21.866V25.3302C33.8295 25.8085 34.2286 26.1962 34.7209 26.1962C35.2133 26.1962 35.6124 25.8085 35.6124 25.3302V21.866C35.6124 21.3877 35.2133 21 34.7209 21C34.2286 21 33.8295 21.3877 33.8295 21.866Z" fill="#0A9FA8"/>
<path d="M31.0572 25.0819L34.4448 26.1536C34.534 26.1818 34.6272 26.1962 34.7209 26.1962C34.7394 26.1962 34.7578 26.1956 34.7762 26.1945C35.1412 26.1724 35.4553 25.9361 35.5685 25.5983C35.5976 25.5117 35.6124 25.4212 35.6124 25.3302C35.6124 25.3122 35.6118 25.2943 35.6106 25.2764C35.5879 24.9218 35.3446 24.6167 34.9969 24.5067L31.6093 23.4349C31.5202 23.4067 31.427 23.3924 31.3333 23.3924C31.3148 23.3924 31.2964 23.3929 31.2779 23.3941C30.913 23.4161 30.5989 23.6525 30.4856 23.9902C30.4566 24.0768 30.4418 24.1673 30.4418 24.2584C30.4418 24.2764 30.4424 24.2943 30.4435 24.3122C30.4662 24.6667 30.7095 24.9719 31.0572 25.0819Z" fill="#0A9FA8"/>
<path d="M35.4422 25.8392C35.4507 25.8278 35.4592 25.8159 35.4671 25.8041C35.5619 25.6632 35.6124 25.4985 35.6124 25.3302C35.6124 25.0528 35.4757 24.7922 35.2446 24.6293C35.2329 24.621 35.2209 24.613 35.2088 24.6053C35.0637 24.5132 34.8942 24.4641 34.721 24.4641C34.4355 24.4641 34.1672 24.597 33.9995 24.8214L31.9047 27.6251C31.794 27.7731 31.7345 27.9512 31.7345 28.134C31.7345 28.1496 31.735 28.1652 31.7358 28.1808C31.7503 28.4413 31.885 28.6816 32.1023 28.8348C32.2546 28.9422 32.4379 29 32.626 29L32.6369 28.9999C32.6801 28.9994 32.7232 28.9959 32.7658 28.9893C32.9993 28.9532 33.2086 28.8286 33.3474 28.6427L35.4422 25.8392Z" fill="#0A9FA8"/>
<path d="M35.4424 24.8214C35.4329 24.8088 35.4232 24.7964 35.413 24.7843C35.2438 24.5818 34.9895 24.4641 34.721 24.4641C34.5328 24.4641 34.3495 24.522 34.1973 24.6293C34.1843 24.6385 34.1715 24.648 34.159 24.6578C33.9505 24.8223 33.8295 25.0693 33.8295 25.3302C33.8295 25.5129 33.889 25.691 33.9995 25.8389L36.0942 28.6424C36.2331 28.8283 36.4425 28.9532 36.676 28.9893C36.7223 28.9964 36.7691 29 36.8159 29C36.8269 29 36.8378 28.9998 36.8488 28.9994C37.0256 28.9931 37.1964 28.9358 37.3396 28.8348C37.5706 28.6719 37.7074 28.4113 37.7074 28.134C37.7074 28.1199 37.707 28.1058 37.7063 28.0917C37.6978 27.9235 37.6391 27.7615 37.5373 27.6252L35.4424 24.8214Z" fill="#0A9FA8"/>
<path d="M37.8325 23.4349L34.4449 24.5067C34.0779 24.6228 33.8295 24.9552 33.8295 25.3302L33.8295 25.3403C33.8306 25.428 33.8453 25.5149 33.8733 25.5983C33.9928 25.9548 34.3349 26.1962 34.7209 26.1962L34.7314 26.1961C34.8216 26.1951 34.9112 26.1807 34.997 26.1536L38.3846 25.0819C38.7516 24.9658 39 24.6334 39 24.2584L38.9999 24.2483C38.9989 24.1606 38.9841 24.0736 38.9562 23.9902C38.8367 23.6337 38.4945 23.3924 38.1085 23.3924L38.0981 23.3924C38.0078 23.3935 37.9183 23.4078 37.8325 23.4349Z" fill="#0A9FA8"/>
<path d="M15.9639 28.1055C15.9584 27.9976 15.9209 27.8926 15.8545 27.8037L14.6064 26.1338L14.0107 26.3223L13.6514 26.8027L14.8916 28.4619C14.9826 28.5837 15.122 28.6671 15.2793 28.6914C15.3103 28.6962 15.3416 28.6992 15.373 28.6992C15.3804 28.6992 15.3881 28.6985 15.3955 28.6982C15.5145 28.6939 15.6287 28.6557 15.7236 28.5889C15.8768 28.4808 15.9648 28.3104 15.9648 28.1328C15.9648 28.1238 15.9643 28.1145 15.9639 28.1055ZM26.6611 28.1055C26.6556 27.9976 26.6182 27.8926 26.5518 27.8037L25.3037 26.1338L24.709 26.3223L24.3496 26.8027L25.5898 28.4619C25.6808 28.5835 25.8194 28.6671 25.9766 28.6914C26.0075 28.6962 26.0389 28.6992 26.0703 28.6992C26.0776 28.6992 26.0854 28.6985 26.0928 28.6982C26.212 28.694 26.3268 28.6559 26.4219 28.5889C26.575 28.4808 26.6621 28.3104 26.6621 28.1328C26.6621 28.1238 26.6616 28.1145 26.6611 28.1055ZM37.4053 28.1055C37.3998 27.9976 37.3623 27.8926 37.2959 27.8037L36.0479 26.1338L35.4531 26.3223L35.0938 26.8027L36.334 28.4619C36.4249 28.5835 36.5636 28.6671 36.7207 28.6914C36.7517 28.6962 36.7831 28.6992 36.8145 28.6992C36.8218 28.6992 36.8296 28.6985 36.8369 28.6982C36.9561 28.694 37.0709 28.6559 37.166 28.5889C37.3191 28.4808 37.4062 28.3104 37.4062 28.1328C37.4062 28.1238 37.4057 28.1145 37.4053 28.1055ZM34.6357 24.7695C34.6279 24.7706 34.6201 24.7721 34.6123 24.7734C34.5894 24.7775 34.5669 24.7825 34.5449 24.7891C34.4968 24.8034 34.4511 24.8241 34.4082 24.8496C34.3526 24.8827 34.3041 24.9235 34.2637 24.9707C34.2581 24.9772 34.2523 24.9835 34.2471 24.9902C34.2237 25.0201 34.2023 25.0513 34.1855 25.085C34.1834 25.0893 34.1827 25.0943 34.1807 25.0986C34.1672 25.1275 34.1568 25.1576 34.1484 25.1885C34.1361 25.2342 34.1289 25.2812 34.1289 25.3291L34.1396 25.4365C34.1459 25.4675 34.1556 25.4973 34.167 25.5264C34.1696 25.533 34.1729 25.5393 34.1758 25.5459C34.1774 25.5497 34.178 25.5539 34.1797 25.5576C34.2288 25.6637 34.3117 25.7522 34.416 25.8125C34.4316 25.8215 34.4474 25.8303 34.4639 25.8379C34.5408 25.8735 34.6269 25.8955 34.7197 25.8955C34.7525 25.8955 34.7844 25.8905 34.8154 25.8857C34.821 25.8849 34.8266 25.8848 34.832 25.8838C34.8469 25.881 34.8614 25.8769 34.876 25.873C34.9112 25.8639 34.9445 25.8518 34.9766 25.8369C34.9953 25.8282 35.0136 25.8191 35.0312 25.8086C35.0459 25.7998 35.0605 25.7912 35.0742 25.7812C35.1105 25.7552 35.1427 25.7247 35.1719 25.6914C35.1844 25.6771 35.197 25.6629 35.208 25.6475C35.2092 25.6458 35.2107 25.6443 35.2119 25.6426C35.2341 25.6107 35.2514 25.576 35.2666 25.54C35.2779 25.5132 35.2871 25.486 35.2939 25.458C35.2963 25.4483 35.2989 25.4386 35.3008 25.4287C35.3069 25.3959 35.3115 25.3626 35.3115 25.3291L35.3086 25.2832C35.2954 25.1286 35.2162 24.9873 35.0918 24.8906C35.0596 24.8657 35.0251 24.8442 34.9883 24.8262C34.9846 24.8244 34.9812 24.822 34.9775 24.8203C34.9703 24.8169 34.9625 24.8146 34.9551 24.8115C34.916 24.7952 34.8754 24.7823 34.833 24.7744C34.7959 24.7675 34.758 24.7627 34.7197 24.7627C34.6913 24.7627 34.6633 24.7657 34.6357 24.7695ZM23.8916 24.7695C23.8837 24.7706 23.876 24.7721 23.8682 24.7734C23.8453 24.7775 23.8228 24.7825 23.8008 24.7891C23.7526 24.8034 23.707 24.8241 23.6641 24.8496C23.6085 24.8827 23.56 24.9235 23.5195 24.9707C23.5139 24.9772 23.5082 24.9835 23.5029 24.9902C23.4796 25.0201 23.4582 25.0513 23.4414 25.085C23.4393 25.0893 23.4386 25.0943 23.4365 25.0986C23.423 25.1275 23.4126 25.1576 23.4043 25.1885C23.392 25.2342 23.3848 25.2812 23.3848 25.3291L23.3955 25.4365C23.4018 25.4675 23.4115 25.4973 23.4229 25.5264C23.4255 25.533 23.4288 25.5393 23.4316 25.5459C23.4333 25.5497 23.4338 25.5539 23.4355 25.5576C23.4847 25.6637 23.5676 25.7522 23.6719 25.8125C23.6875 25.8215 23.7032 25.8303 23.7197 25.8379C23.7967 25.8735 23.8828 25.8955 23.9756 25.8955C24.0083 25.8955 24.0402 25.8905 24.0713 25.8857C24.0768 25.8849 24.0824 25.8848 24.0879 25.8838C24.1028 25.881 24.1172 25.8769 24.1318 25.873C24.167 25.8639 24.2004 25.8518 24.2324 25.8369C24.2512 25.8282 24.2695 25.8191 24.2871 25.8086C24.3018 25.7998 24.3163 25.7912 24.3301 25.7812C24.3664 25.7552 24.3986 25.7247 24.4277 25.6914C24.4403 25.6771 24.4529 25.6629 24.4639 25.6475C24.4651 25.6458 24.4666 25.6443 24.4678 25.6426C24.4899 25.6107 24.5073 25.576 24.5225 25.54C24.5338 25.5132 24.5429 25.486 24.5498 25.458C24.5522 25.4483 24.5548 25.4386 24.5566 25.4287C24.5628 25.3959 24.5674 25.3626 24.5674 25.3291L24.5645 25.2832C24.557 25.1964 24.5287 25.1141 24.4834 25.041C24.4745 25.0267 24.4653 25.0126 24.4551 24.999C24.4247 24.9586 24.3886 24.9224 24.3477 24.8906C24.3155 24.8657 24.2809 24.8442 24.2441 24.8262C24.2405 24.8244 24.2371 24.822 24.2334 24.8203C24.2261 24.8169 24.2184 24.8146 24.2109 24.8115C24.1718 24.7952 24.1312 24.7823 24.0889 24.7744C24.0518 24.7675 24.0138 24.7627 23.9756 24.7627C23.9472 24.7627 23.9192 24.7657 23.8916 24.7695ZM13.1943 24.7695C13.1858 24.7707 13.1774 24.7719 13.1689 24.7734C13.147 24.7774 13.1256 24.7828 13.1045 24.7891C13.0441 24.8069 12.9864 24.8328 12.9346 24.8682C12.9263 24.8738 12.9191 24.8807 12.9111 24.8867C12.8768 24.9128 12.8465 24.9424 12.8193 24.9746C12.8158 24.9788 12.811 24.982 12.8076 24.9863C12.7846 25.0153 12.7648 25.0465 12.748 25.0791C12.7426 25.0896 12.7381 25.1005 12.7334 25.1113C12.7227 25.1357 12.7141 25.1608 12.707 25.1865C12.7041 25.1972 12.7015 25.2079 12.6992 25.2188C12.6917 25.2548 12.6865 25.2916 12.6865 25.3291C12.6865 25.3636 12.69 25.3976 12.6963 25.4307C12.697 25.4343 12.6985 25.4378 12.6992 25.4414C12.7004 25.447 12.7018 25.4525 12.7031 25.458C12.7118 25.4932 12.724 25.527 12.7393 25.5596C12.7483 25.5788 12.7585 25.5972 12.7695 25.6152C12.7775 25.6283 12.7859 25.641 12.7949 25.6533C12.8323 25.7043 12.8774 25.7495 12.9297 25.7861C12.9448 25.7968 12.9613 25.8052 12.9775 25.8145C12.992 25.8227 13.0063 25.8309 13.0215 25.8379C13.0986 25.8736 13.1852 25.8955 13.2783 25.8955C13.3118 25.8955 13.3442 25.8908 13.376 25.8857C13.3809 25.885 13.3858 25.8847 13.3906 25.8838C13.4039 25.8813 13.4167 25.8773 13.4297 25.874C13.4662 25.8648 13.501 25.8532 13.5342 25.8379C13.5549 25.8283 13.5745 25.8174 13.5938 25.8057C13.6045 25.7991 13.6148 25.7923 13.625 25.7852C13.6457 25.7707 13.6651 25.7551 13.6836 25.7383C13.6898 25.7327 13.6963 25.7275 13.7021 25.7217C13.7254 25.6987 13.7467 25.674 13.7656 25.6475C13.7707 25.6403 13.7745 25.6324 13.7793 25.625C13.7931 25.6036 13.8056 25.5818 13.8164 25.5586C13.8367 25.5152 13.852 25.4697 13.8604 25.4219C13.8657 25.3912 13.8691 25.3602 13.8691 25.3291C13.8691 25.2941 13.865 25.2596 13.8584 25.2256C13.8328 25.0946 13.7598 24.977 13.6523 24.8926C13.6202 24.8673 13.5857 24.8454 13.5488 24.8271C13.5432 24.8244 13.5379 24.821 13.5322 24.8184C13.5281 24.8165 13.5237 24.8153 13.5195 24.8135C13.479 24.7961 13.4366 24.7827 13.3926 24.7744C13.3551 24.7673 13.317 24.7627 13.2783 24.7627C13.25 24.7627 13.2219 24.7658 13.1943 24.7695ZM16.5684 23.6992C16.5386 23.704 16.5092 23.7107 16.4805 23.7197L14.4697 24.3555V24.9473L14.832 25.4326L16.8516 24.7949C17.0676 24.7265 17.2163 24.5493 17.25 24.3457L17.2568 24.2578V24.251L17.25 24.167C17.2453 24.1392 17.2375 24.1119 17.2285 24.085C17.1611 23.8837 16.9811 23.7336 16.7617 23.6992L16.666 23.6914H16.6592L16.5684 23.6992ZM27.2656 23.6992C27.2359 23.704 27.2064 23.7107 27.1777 23.7197L25.167 24.3555V24.9473L25.5293 25.4326L27.5488 24.7949C27.7649 24.7266 27.9135 24.5494 27.9473 24.3457L27.9551 24.2578V24.251L27.9473 24.167C27.9426 24.1393 27.9357 24.1118 27.9268 24.085C27.8594 23.8839 27.6791 23.7337 27.46 23.6992L27.3633 23.6914H27.3564L27.2656 23.6992ZM38.0098 23.6992C37.98 23.704 37.9506 23.7107 37.9219 23.7197L35.9111 24.3555V24.9473L36.2734 25.4326L38.293 24.7949C38.5091 24.7266 38.6577 24.5494 38.6914 24.3457L38.6992 24.2578V24.251L38.6914 24.167C38.6867 24.1393 38.6799 24.1118 38.6709 24.085C38.6035 23.8839 38.4232 23.7337 38.2041 23.6992L38.1074 23.6914H38.1006L38.0098 23.6992ZM10.5928 28.1631C10.6021 28.33 10.688 28.4872 10.832 28.5889C10.9332 28.6602 11.0567 28.6992 11.1836 28.6992H11.1904C11.2195 28.6989 11.2487 28.6958 11.2773 28.6914C11.4347 28.6671 11.5732 28.5835 11.6641 28.4619L12.9033 26.8027L12.5439 26.3223L11.9492 26.1338L10.7021 27.8037C10.6299 27.9004 10.5918 28.0156 10.5918 28.1328C10.5918 28.1428 10.5922 28.1531 10.5928 28.1631ZM13.8691 21.8652C13.8691 21.5608 13.6131 21.2989 13.2783 21.2988C12.9434 21.2988 12.6865 21.5607 12.6865 21.8652V23.916L13.2773 24.1035L13.8691 23.916V21.8652ZM21.29 28.1631C21.2993 28.3301 21.3862 28.4872 21.5303 28.5889C21.6314 28.6601 21.7541 28.6992 21.8809 28.6992H21.8887C21.9175 28.6989 21.9462 28.6958 21.9746 28.6914C22.132 28.6671 22.2714 28.5836 22.3623 28.4619L23.6006 26.8037L23.2402 26.3213L22.6465 26.1338L21.3994 27.8037C21.3272 27.9004 21.2891 28.0157 21.2891 28.1328C21.2891 28.1428 21.2895 28.1531 21.29 28.1631ZM24.5674 21.8652C24.5674 21.5607 24.3105 21.2988 23.9756 21.2988C23.6408 21.2989 23.3848 21.5608 23.3848 21.8652V23.916L23.9756 24.1035L24.5674 23.916V21.8652ZM32.0342 28.1631C32.0435 28.3301 32.1303 28.4872 32.2744 28.5889C32.3755 28.6601 32.4982 28.6992 32.625 28.6992H32.6328C32.6616 28.6989 32.6903 28.6958 32.7188 28.6914C32.8762 28.6671 33.0155 28.5836 33.1064 28.4619L34.3447 26.8037L33.9844 26.3213L33.3906 26.1338L32.1436 27.8037C32.0714 27.9004 32.0332 28.0157 32.0332 28.1328C32.0332 28.1429 32.0336 28.1531 32.0342 28.1631ZM35.3115 21.8652C35.3115 21.5607 35.0546 21.2988 34.7197 21.2988C34.3849 21.2989 34.1289 21.5608 34.1289 21.8652V23.916L34.7197 24.1035L35.3115 23.916V21.8652ZM9.2998 24.292C9.31432 24.5187 9.47123 24.7209 9.70508 24.7949L11.7236 25.4326L12.0869 24.9473V24.3555L10.0762 23.7197C10.0164 23.7008 9.95371 23.6914 9.89062 23.6914C9.87829 23.6914 9.86582 23.6916 9.85352 23.6924C9.60638 23.7073 9.40017 23.8671 9.32715 24.085C9.30847 24.1408 9.29883 24.1994 9.29883 24.2578C9.29884 24.2692 9.29908 24.2806 9.2998 24.292ZM19.998 24.292C20.0126 24.5187 20.1686 24.7209 20.4023 24.7949L22.4209 25.4326L22.7842 24.9473V24.3555L20.7734 23.7197C20.7138 23.7009 20.6509 23.6914 20.5879 23.6914C20.5756 23.6914 20.5631 23.6916 20.5508 23.6924C20.3037 23.7074 20.0984 23.8672 20.0254 24.085C20.0067 24.1409 19.9971 24.1993 19.9971 24.2578C19.9971 24.2692 19.9973 24.2806 19.998 24.292ZM30.7422 24.292C30.7567 24.5187 30.9128 24.7209 31.1465 24.7949L33.165 25.4326L33.5283 24.9473V24.3555L31.5176 23.7197C31.4579 23.7009 31.395 23.6914 31.332 23.6914C31.3197 23.6914 31.3072 23.6916 31.2949 23.6924C31.0478 23.7074 30.8425 23.8672 30.7695 24.085C30.7508 24.1409 30.7412 24.1993 30.7412 24.2578C30.7412 24.2692 30.7415 24.2806 30.7422 24.292ZM14.4697 23.7256L16.2988 23.1475C16.4127 23.1114 16.5318 23.0932 16.6514 23.0918H16.666C17.1761 23.0919 17.6358 23.4107 17.7979 23.8936C17.8168 23.9499 17.8309 24.008 17.8408 24.0664L17.8574 24.2432V24.2578C17.8573 24.7682 17.5193 25.2131 17.0322 25.3672L15.2129 25.9424L16.335 27.4443C16.4719 27.6277 16.5519 27.8471 16.5635 28.0752C16.5644 28.0943 16.5645 28.1137 16.5645 28.1328C16.5645 28.5099 16.3783 28.8613 16.0693 29.0791C15.8782 29.2138 15.6512 29.2894 15.417 29.2979C15.4025 29.2984 15.3876 29.2988 15.373 29.2988C15.3109 29.2988 15.2489 29.2946 15.1875 29.2852C14.8779 29.2374 14.5979 29.0712 14.4111 28.8213L13.2773 27.3037L12.1445 28.8213C11.9577 29.0712 11.6785 29.2373 11.3691 29.2852C11.3125 29.2939 11.2546 29.2981 11.1973 29.2988H11.1836C10.9342 29.2988 10.6897 29.2225 10.4863 29.0791C10.1959 28.8742 10.0129 28.5503 9.99316 28.1963C9.99199 28.1752 9.99219 28.1539 9.99219 28.1328C9.99223 27.8846 10.0728 27.6436 10.2217 27.4443L11.3428 25.9424L9.52441 25.3672C9.06285 25.2212 8.73206 24.8125 8.70117 24.3301C8.69964 24.306 8.69923 24.2819 8.69922 24.2578C8.69922 24.1342 8.71949 24.0108 8.75879 23.8936C8.91236 23.4361 9.33473 23.1229 9.81738 23.0938C9.84173 23.0923 9.86623 23.0918 9.89062 23.0918C10.0148 23.0918 10.1385 23.1101 10.2568 23.1475L12.0869 23.7266V21.8652C12.0869 21.2131 12.6285 20.6992 13.2783 20.6992C13.928 20.6993 14.4697 21.2132 14.4697 21.8652V23.7256ZM25.167 23.7266L26.9971 23.1475C27.111 23.1114 27.23 23.0932 27.3496 23.0918H27.3633C27.8734 23.0918 28.333 23.4106 28.4951 23.8936C28.5329 24.0062 28.5532 24.1244 28.5547 24.2432V24.2578C28.5545 24.7682 28.2166 25.2131 27.7295 25.3672L25.9102 25.9424L27.0322 27.4443C27.1692 27.6277 27.2492 27.8471 27.2607 28.0752C27.2617 28.0943 27.2627 28.1138 27.2627 28.1328C27.2627 28.5099 27.0764 28.8613 26.7676 29.0791C26.5763 29.214 26.3486 29.2894 26.1143 29.2979C26.0998 29.2984 26.0848 29.2988 26.0703 29.2988C26.0083 29.2988 25.946 29.2946 25.8848 29.2852C25.5752 29.2373 25.2951 29.0712 25.1084 28.8213L23.9756 27.3047L22.8428 28.8213C22.6559 29.0714 22.376 29.2374 22.0664 29.2852C22.0099 29.2939 21.9527 29.2981 21.8955 29.2988H21.8809C21.6316 29.2988 21.3879 29.2224 21.1846 29.0791C20.894 28.8742 20.7111 28.5504 20.6914 28.1963C20.6902 28.1752 20.6895 28.1539 20.6895 28.1328C20.6895 27.8846 20.7701 27.6436 20.9189 27.4443L22.04 25.9424L20.2217 25.3672C19.7601 25.2212 19.4303 24.8125 19.3994 24.3301C19.3979 24.306 19.3965 24.2819 19.3965 24.2578C19.3965 24.1342 19.4168 24.0108 19.4561 23.8936C19.6096 23.436 20.032 23.123 20.5146 23.0938C20.539 23.0923 20.5635 23.0918 20.5879 23.0918C20.7123 23.0918 20.8366 23.11 20.9551 23.1475L22.7842 23.7256V21.8652C22.7842 21.2132 23.3259 20.6993 23.9756 20.6992C24.6254 20.6992 25.167 21.2131 25.167 21.8652V23.7266ZM35.9111 23.7266L37.7412 23.1475C37.8552 23.1114 37.9742 23.0932 38.0938 23.0918H38.1074C38.6175 23.0918 39.0772 23.4106 39.2393 23.8936C39.277 24.0063 39.2973 24.1244 39.2988 24.2432V24.2578C39.2987 24.7682 38.9607 25.2131 38.4736 25.3672L36.6543 25.9424L37.7764 27.4443C37.9133 27.6277 37.9933 27.8471 38.0049 28.0752C38.0058 28.0942 38.0068 28.1137 38.0068 28.1328C38.0068 28.5099 37.8206 28.8613 37.5117 29.0791C37.3205 29.214 37.0928 29.2894 36.8584 29.2979C36.8439 29.2984 36.829 29.2988 36.8145 29.2988C36.7525 29.2988 36.6902 29.2946 36.6289 29.2852C36.3193 29.2373 36.0393 29.0712 35.8525 28.8213L34.7197 27.3047L33.5869 28.8213C33.4 29.0714 33.1201 29.2374 32.8105 29.2852C32.754 29.2939 32.6969 29.2981 32.6396 29.2988H32.625C32.3757 29.2988 32.132 29.2224 31.9287 29.0791C31.6381 28.8742 31.4553 28.5504 31.4355 28.1963C31.4344 28.1752 31.4336 28.1539 31.4336 28.1328C31.4336 27.8846 31.5142 27.6436 31.6631 27.4443L32.7842 25.9424L30.9658 25.3672C30.5043 25.2212 30.1744 24.8125 30.1436 24.3301C30.142 24.306 30.1406 24.2819 30.1406 24.2578C30.1406 24.1342 30.1609 24.0108 30.2002 23.8936C30.3537 23.436 30.7761 23.123 31.2588 23.0938C31.2832 23.0923 31.3076 23.0918 31.332 23.0918C31.4564 23.0918 31.5807 23.11 31.6992 23.1475L33.5283 23.7256V21.8652C33.5283 21.2132 34.07 20.6993 34.7197 20.6992C35.3695 20.6992 35.9111 21.2131 35.9111 21.8652V23.7266Z" fill="#0A9FA8"/>
</svg>
