<svg width="24" height="24" viewBox="0 0 24 24" fill="none" xmlns="http://www.w3.org/2000/svg">
<path fill-rule="evenodd" clip-rule="evenodd" d="M2.25 12.0002C2.24995 10.0516 2.99892 8.25261 2.99892 8.25261C3.74788 6.45362 5.1308 5.08072 5.1308 5.08072C6.51371 3.70781 8.31809 2.97194 8.31809 2.97194C10.1225 2.23606 12.0711 2.25027 12.0711 2.25027C14.0093 2.23402 15.8155 2.969 15.8155 2.969C17.6217 3.70397 19.0063 5.07709 19.0063 5.07709C20.3908 6.45021 21.1408 8.25025 21.1408 8.25025C21.8907 10.0503 21.8906 12.0002 21.8906 12.0002V17.2502C21.8906 18.1822 21.2316 18.8412 21.2316 18.8412C20.5726 19.5002 19.6406 19.5002 19.6406 19.5002H18.1406C17.2086 19.5002 16.5496 18.8412 16.5496 18.8412C15.8906 18.1822 15.8906 17.2502 15.8906 17.2502V13.5002C15.8906 12.5683 16.5496 11.9093 16.5496 11.9093C17.2086 11.2502 18.1406 11.2502 18.1406 11.2502H20.3573C20.2452 10.001 19.7561 8.82712 19.7561 8.82712C19.1216 7.30402 17.95 6.14215 17.95 6.14215C16.7784 4.98027 15.2501 4.35837 15.2501 4.35837C13.7218 3.73647 12.0602 3.75023 12.0602 3.75023C10.4113 3.7382 8.88454 4.36087 8.88454 4.36087C7.35775 4.98354 6.1876 6.14522 6.1876 6.14522C5.01744 7.30691 4.3837 8.82913 4.3837 8.82913C3.89537 10.0021 3.78335 11.2502 3.78335 11.2502H6C6.93198 11.2502 7.59099 11.9093 7.59099 11.9093C8.25 12.5683 8.25 13.5002 8.25 13.5002V17.2502C8.25 18.1822 7.59099 18.8412 7.59099 18.8412C6.93198 19.5002 6 19.5002 6 19.5002H4.5C3.56802 19.5002 2.90901 18.8412 2.90901 18.8412C2.25 18.1822 2.25 17.2502 2.25 17.2502V12.0002ZM3.75 12.7502V17.2502C3.75 17.5609 3.96967 17.7806 3.96967 17.7806C4.18934 18.0002 4.5 18.0002 4.5 18.0002H6C6.31066 18.0002 6.53033 17.7806 6.53033 17.7806C6.75 17.5609 6.75 17.2502 6.75 17.2502V13.5002C6.75 13.1896 6.53033 12.9699 6.53033 12.9699C6.31066 12.7502 6 12.7502 6 12.7502H3.75ZM18.1406 12.7502H20.3906V17.2502C20.3906 17.2502 20.3906 17.5609 20.171 17.7806C20.171 17.7806 19.9513 18.0002 19.6406 18.0002H18.1406C18.1406 18.0002 17.83 18.0002 17.6103 17.7806C17.6103 17.7806 17.3906 17.5609 17.3906 17.2502V13.5002C17.3906 13.5002 17.3906 13.1896 17.6103 12.9699C17.6103 12.9699 17.83 12.7502 18.1406 12.7502Z" fill="white"/>
<path d="M18.1406 21.7503H12.75C12.3358 21.7503 12 22.0861 12 22.5003C12 22.9145 12.3358 23.2503 12.75 23.2503H18.1406C19.6939 23.2503 20.7923 22.1519 20.7923 22.1519C21.8906 21.0536 21.8906 19.5003 21.8906 19.5003V17.2502C21.8906 16.836 21.5548 16.5003 21.1406 16.5003C20.7264 16.5003 20.3906 16.836 20.3906 17.2502V19.5003C20.3906 20.4323 19.7316 21.0913 19.7316 21.0913C19.0726 21.7503 18.1406 21.7503 18.1406 21.7503Z" fill="white"/>
</svg>
