<svg width="16" height="16" viewBox="0 0 16 16" fill="none" xmlns="http://www.w3.org/2000/svg">
<path d="M8 1.64453C8.47237 1.64453 8.85621 2.02769 8.85645 2.5V7.14453H13.5C13.9724 7.14453 14.3562 7.52769 14.3564 8C14.3564 8.47251 13.9725 8.85645 13.5 8.85645H8.85645V13.5C8.85645 13.9725 8.47251 14.3564 8 14.3564C7.52769 14.3562 7.14453 13.9724 7.14453 13.5V8.85645H2.5C2.02769 8.85621 1.64453 8.47237 1.64453 8C1.64477 7.52783 2.02783 7.14477 2.5 7.14453H7.14453V2.5C7.14477 2.02783 7.52783 1.64477 8 1.64453Z" fill="#00A2AA"/>
</svg>
