<svg width="22" height="22" viewBox="0 0 22 22" fill="none" xmlns="http://www.w3.org/2000/svg">
<path d="M7.21875 10.6562H12.7188C13.0984 10.6562 13.4062 10.3484 13.4062 9.96875C13.4062 9.58905 13.0984 9.28125 12.7188 9.28125H7.21875C6.83905 9.28125 6.53125 9.58905 6.53125 9.96875C6.53125 10.3484 6.83905 10.6562 7.21875 10.6562Z" fill="#00A2AA"/>
<path d="M9.28125 7.21875V12.7188C9.28125 13.0984 9.58905 13.4062 9.96875 13.4062C10.3484 13.4062 10.6562 13.0984 10.6562 12.7188V7.21875C10.6562 6.83905 10.3484 6.53125 9.96875 6.53125C9.58905 6.53125 9.28125 6.83905 9.28125 7.21875Z" fill="#00A2AA"/>
<path fill-rule="evenodd" clip-rule="evenodd" d="M9.96875 2.0625C9.96875 2.0625 11.5768 2.0625 13.0464 2.68409C13.0464 2.68409 14.4654 3.28426 15.5593 4.37819C15.5593 4.37819 16.6532 5.47211 17.2534 6.89107C17.2534 6.89107 17.875 8.36069 17.875 9.96875C17.875 9.96875 17.875 11.5768 17.2534 13.0464C17.2534 13.0464 16.6532 14.4654 15.5593 15.5593C15.5593 15.5593 14.4654 16.6532 13.0464 17.2534C13.0464 17.2534 11.5768 17.875 9.96875 17.875C9.96875 17.875 8.36069 17.875 6.89107 17.2534C6.89107 17.2534 5.47211 16.6532 4.37819 15.5593C4.37819 15.5593 3.28426 14.4654 2.68409 13.0464C2.68409 13.0464 2.0625 11.5768 2.0625 9.96875C2.0625 9.96875 2.0625 8.36068 2.68409 6.89107C2.68409 6.89107 3.28426 5.47211 4.37819 4.37819C4.37819 4.37819 5.47211 3.28426 6.89107 2.6841C6.89107 2.6841 8.36068 2.0625 9.96875 2.0625ZM9.96875 3.4375C9.96875 3.4375 8.63952 3.4375 7.4267 3.95048C7.4267 3.95048 6.25474 4.44617 5.35046 5.35046C5.35046 5.35046 4.44617 6.25475 3.95048 7.4267C3.95048 7.4267 3.4375 8.63952 3.4375 9.96875C3.4375 9.96875 3.4375 11.298 3.95048 12.5108C3.95048 12.5108 4.44617 13.6828 5.35046 14.587C5.35046 14.587 6.25475 15.4913 7.4267 15.987C7.4267 15.987 8.63952 16.5 9.96875 16.5C9.96875 16.5 11.298 16.5 12.5108 15.987C12.5108 15.987 13.6828 15.4913 14.587 14.587C14.587 14.587 15.4913 13.6828 15.987 12.5108C15.987 12.5108 16.5 11.298 16.5 9.96875C16.5 9.96875 16.5 8.63952 15.987 7.4267C15.987 7.4267 15.4913 6.25475 14.587 5.35046C14.587 5.35046 13.6828 4.44617 12.5108 3.95048C12.5108 3.95048 11.298 3.4375 9.96875 3.4375Z" fill="#00A2AA"/>
<path d="M18.7635 19.7358C18.8925 19.8647 19.0677 19.9375 19.25 19.9375C19.4324 19.9375 19.6072 19.8651 19.7362 19.7362C19.8651 19.6072 19.9375 19.4324 19.9375 19.25C19.9375 19.0677 19.8651 18.8928 19.7362 18.7639L15.5597 14.5874C15.4307 14.4584 15.2558 14.386 15.0735 14.386C14.8911 14.386 14.716 14.4581 14.587 14.587C14.4581 14.716 14.386 14.8911 14.386 15.0735C14.386 15.2558 14.4584 15.4307 14.5873 15.5596L18.7635 19.7358Z" fill="#00A2AA"/>
</svg>
