<svg width="20" height="20" viewBox="0 0 20 20" fill="none" xmlns="http://www.w3.org/2000/svg">
<path d="M4.91797 5.25H14.918C16.7129 5.25 18.168 6.70507 18.168 8.5V12.5C18.168 14.2949 16.7129 15.75 14.918 15.75H4.91797C3.12304 15.75 1.66797 14.2949 1.66797 12.5V8.5C1.66797 6.70507 3.12304 5.25 4.91797 5.25Z" stroke="#00A2AA" stroke-width="1.5"/>
<path d="M14.9869 10.1021C14.973 10.0717 14.9496 10.0459 14.9197 10.0277C14.8898 10.0095 14.8546 9.9999 14.8187 10H11.1813C11.1454 9.9999 11.1102 10.0095 11.0803 10.0277C11.0504 10.0459 11.027 10.0717 11.0131 10.1021C11 10.1329 10.9966 10.1664 11.0035 10.1989C11.0103 10.2313 11.027 10.2613 11.0517 10.2854L12.8704 11.952C12.9052 11.9828 12.9516 12 13 12C13.0484 12 13.0948 11.9828 13.1296 11.952L14.9483 10.2854C14.973 10.2613 14.9897 10.2313 14.9965 10.1989C15.0034 10.1664 15 10.1329 14.9869 10.1021Z" fill="#00A2AA"/>
</svg>
