<svg width="16" height="16" viewBox="0 0 16 16" fill="none" xmlns="http://www.w3.org/2000/svg">
<path d="M10.7832 5.33311C10.4834 5.33316 9.47508 5.33324 9.33147 5.3331C9.2317 5.3334 8.88507 5.33283 8.79907 5.33315H6.04347C5.95747 5.33283 5.56323 5.33315 5.40666 5.33319C5.21228 5.33319 4.99833 5.33319 4.90959 5.33315C4.75047 5.33315 4.49005 5.33315 4.33398 5.33315C3.93811 5.33315 3.72265 5.79569 3.97734 6.09876L7.69027 10.517C7.77353 10.6128 7.88483 10.6663 8.00065 10.6663C8.11648 10.6663 8.22777 10.6128 8.31104 10.517L12.1096 5.9968C12.3303 5.73418 12.1435 5.33315 11.8005 5.3334C11.4606 5.33329 10.889 5.33317 10.7832 5.33311Z" fill="#0F1212"/>
</svg>
