<svg width="22" height="22" viewBox="0 0 22 22" fill="none" xmlns="http://www.w3.org/2000/svg">
<path d="M8.9375 5.15625C8.9375 5.72575 8.47575 6.1875 7.90625 6.1875C7.33675 6.1875 6.875 5.72575 6.875 5.15625C6.875 4.58675 7.33675 4.125 7.90625 4.125C8.47575 4.125 8.9375 4.58675 8.9375 5.15625Z" fill="#A1A7A7"/>
<path d="M15.125 5.15625C15.125 5.72575 14.6633 6.1875 14.0938 6.1875C13.5242 6.1875 13.0625 5.72575 13.0625 5.15625C13.0625 4.58675 13.5242 4.125 14.0938 4.125C14.6633 4.125 15.125 4.58675 15.125 5.15625Z" fill="#A1A7A7"/>
<path d="M8.9375 11C8.9375 11.5695 8.47575 12.0312 7.90625 12.0312C7.33675 12.0312 6.875 11.5695 6.875 11C6.875 10.4305 7.33675 9.96875 7.90625 9.96875C8.47575 9.96875 8.9375 10.4305 8.9375 11Z" fill="#A1A7A7"/>
<path d="M15.125 11C15.125 11.5695 14.6633 12.0312 14.0938 12.0312C13.5242 12.0312 13.0625 11.5695 13.0625 11C13.0625 10.4305 13.5242 9.96875 14.0938 9.96875C14.6633 9.96875 15.125 10.4305 15.125 11Z" fill="#A1A7A7"/>
<path d="M8.9375 16.8438C8.9375 17.4133 8.47575 17.875 7.90625 17.875C7.33675 17.875 6.875 17.4133 6.875 16.8438C6.875 16.2742 7.33675 15.8125 7.90625 15.8125C8.47575 15.8125 8.9375 16.2742 8.9375 16.8438Z" fill="#A1A7A7"/>
<path d="M15.125 16.8438C15.125 17.4133 14.6633 17.875 14.0938 17.875C13.5242 17.875 13.0625 17.4133 13.0625 16.8438C13.0625 16.2742 13.5242 15.8125 14.0938 15.8125C14.6633 15.8125 15.125 16.2742 15.125 16.8438Z" fill="#A1A7A7"/>
</svg>
