<svg width="24" height="24" viewBox="0 0 24 24" fill="none" xmlns="http://www.w3.org/2000/svg">
<path d="M8.9993 21.7502H14.9993C15.4135 21.7502 15.7493 21.4144 15.7493 21.0002C15.7493 20.5859 15.4135 20.2502 14.9993 20.2502H8.9993C8.58509 20.2502 8.2493 20.5859 8.2493 21.0002C8.2493 21.4144 8.58509 21.7502 8.9993 21.7502Z" fill="#5C6566"/>
<path fill-rule="evenodd" clip-rule="evenodd" d="M4.51806 10.5001V9.75008C4.51806 9.75008 4.51596 8.25437 5.08921 6.87174C5.08921 6.87174 5.66246 5.4891 6.72303 4.43293C6.72303 4.43293 7.7836 3.37676 9.16861 2.80926C9.16861 2.80926 10.5536 2.24176 12.0504 2.25009C12.0504 2.25009 13.5723 2.26162 14.9581 2.86961C14.9581 2.86961 16.2915 3.45457 17.318 4.50894C17.318 4.50894 18.3404 5.55919 18.9011 6.91345C18.9011 6.91345 19.4806 8.31283 19.4806 9.83445V10.5001C19.4806 10.5001 19.4806 14.3904 20.7015 16.4993C20.7015 16.4993 20.9026 16.8475 20.9029 17.2488C20.9029 17.2488 20.9033 17.65 20.7033 17.9978C20.7033 17.9978 20.5033 18.3456 20.1564 18.5471C20.1564 18.5471 19.8094 18.7487 19.4082 18.7501L4.59306 18.7501C4.59306 18.7501 4.1892 18.7487 3.84227 18.5471C3.84227 18.5471 3.49534 18.3456 3.29535 17.9978C3.29535 17.9978 3.09535 17.65 3.0957 17.2488C3.0957 17.2488 3.09606 16.8475 3.29667 16.5001C3.29667 16.5001 4.51806 14.3904 4.51806 10.5001ZM6.01806 10.5001C6.01806 10.5001 6.01806 14.7933 4.5957 17.2501L19.4029 17.2501C19.4029 17.2501 17.9806 14.7926 17.9806 10.5001V9.83445C17.9806 9.83445 17.9806 7.33991 16.2432 5.55528C16.2432 5.55528 14.5039 3.76872 12.042 3.75007C12.042 3.75007 10.845 3.74341 9.73734 4.19726C9.73734 4.19726 8.62967 4.65112 7.78149 5.49579C7.78149 5.49579 6.93329 6.34046 6.47484 7.44623C6.47484 7.44623 6.01638 8.55199 6.01806 9.75008V10.5001Z" fill="#5C6566"/>
</svg>
