<svg width="24" height="24" viewBox="0 0 24 24" fill="none" xmlns="http://www.w3.org/2000/svg">
<path d="M18.2197 4.71967L4.71967 18.2197C4.57902 18.3603 4.5 18.5511 4.5 18.75C4.5 18.9489 4.57902 19.1397 4.71967 19.2803C4.86032 19.421 5.05109 19.5 5.25 19.5C5.44891 19.5 5.63968 19.421 5.78033 19.2803L19.2803 5.78033C19.421 5.63968 19.5 5.44891 19.5 5.25C19.5 5.05109 19.421 4.86032 19.2803 4.71967C19.1397 4.57902 18.9489 4.5 18.75 4.5C18.5511 4.5 18.3603 4.57902 18.2197 4.71967Z" fill="#1C1C1C"/>
<path d="M5.78033 4.71967C5.63968 4.57902 5.44891 4.5 5.25 4.5C5.05109 4.5 4.86032 4.57902 4.71967 4.71967C4.57902 4.86032 4.5 5.05109 4.5 5.25C4.5 5.44891 4.57902 5.63968 4.71967 5.78033L18.2197 19.2803C18.3603 19.421 18.5511 19.5 18.75 19.5C18.9489 19.5 19.1397 19.421 19.2803 19.2803C19.421 19.1397 19.5 18.9489 19.5 18.75C19.5 18.5511 19.421 18.3603 19.2803 18.2197L5.78033 4.71967Z" fill="#1C1C1C"/>
</svg>
