<svg width="24" height="24" viewBox="0 0 24 24" fill="none" xmlns="http://www.w3.org/2000/svg">
<path fill-rule="evenodd" clip-rule="evenodd" d="M10.9111 8.99936L9.3484 11.3761C9.3484 11.3761 10.4263 13.5995 12.6491 14.6688L12.6521 14.6668L14.9915 13.1041C14.9915 13.1041 15.3092 12.8886 15.6915 12.8534C15.6915 12.8534 16.0738 12.8182 16.421 12.9701L20.8007 14.8512C20.8007 14.8512 21.266 15.0448 21.5183 15.4811C21.5183 15.4811 21.7706 15.9174 21.7064 16.417C21.7064 16.417 21.4547 18.3818 19.9678 19.6906C19.9678 19.6906 18.481 20.9994 16.5 20.9998C16.5 20.9998 13.8147 20.9998 11.3338 19.9722C11.3338 19.9722 8.85286 18.9446 6.95406 17.0458C6.95406 17.0458 5.05525 15.147 4.02763 12.6661C4.02763 12.6661 3 10.1851 3 7.49966C3 7.49966 3.00045 5.51883 4.30925 4.03198C4.30925 4.03198 5.61805 2.54514 7.58257 2.29344C7.58257 2.29344 8.08245 2.22923 8.51873 2.48153C8.51873 2.48153 8.95501 2.73384 9.14561 3.19189L11.0285 7.58542C11.0285 7.58542 11.1778 7.9291 11.1479 8.3026C11.1479 8.3026 11.1181 8.6761 10.9111 8.99936ZM7.99536 12.0236L7.99416 12.0211C7.99416 12.0211 7.82652 11.6692 7.85147 11.2801C7.85147 11.2801 7.8765 10.8896 8.08911 10.5611L9.65268 8.18292L7.76689 3.78277C7.76689 3.78277 6.36768 3.96372 5.43518 5.02309C5.43518 5.02309 4.50032 6.08512 4.5 7.5C4.5 7.5 4.5 9.88678 5.41345 12.092C5.41345 12.092 6.32689 14.2973 8.01472 15.9851C8.01472 15.9851 9.70255 17.6729 11.9078 18.5864C11.9078 18.5864 14.1131 19.4998 16.5 19.4998C16.5 19.4998 17.9147 19.4995 18.9767 18.5646C18.9767 18.5646 20.0362 17.632 20.2177 16.2332L15.8292 14.3484L13.4853 15.9141C13.4853 15.9141 13.159 16.1344 12.7627 16.1645C12.7627 16.1645 12.3664 16.1946 12.0072 16.0246C12.0072 16.0246 9.30279 14.7235 7.99685 12.0267L7.99629 12.0255L7.99595 12.0248L7.99536 12.0236Z" fill="#0A9FA8"/>
<path d="M18.75 5.24988V8.24988C18.75 8.66409 19.0858 8.99988 19.5 8.99988C19.9142 8.99988 20.25 8.66409 20.25 8.24988V4.49988C20.25 4.08566 19.9142 3.74988 19.5 3.74988H15.75C15.3358 3.74988 15 4.08566 15 4.49988C15 4.91409 15.3358 5.24988 15.75 5.24988H18.75Z" fill="#0A9FA8"/>
<path d="M20.03 5.03049C20.1707 4.88984 20.25 4.69879 20.25 4.49988C20.25 4.30097 20.171 4.1102 20.0303 3.96955L20.0239 3.96315C19.8838 3.82668 19.6956 3.74988 19.5 3.74988C19.4775 3.74988 19.455 3.75089 19.4326 3.75291C19.2577 3.76869 19.0939 3.84536 18.9697 3.96955L14.47 8.46927C14.3293 8.60992 14.25 8.80097 14.25 8.99988C14.25 9.01189 14.2503 9.0239 14.2509 9.03591C14.2598 9.22214 14.3378 9.39837 14.4697 9.53021C14.6103 9.67086 14.8011 9.74988 15 9.74988C15.1989 9.74988 15.3897 9.67086 15.5303 9.53021L20.03 5.03049Z" fill="#0A9FA8"/>
</svg>
