<svg width="24" height="24" viewBox="0 0 24 24" fill="none" xmlns="http://www.w3.org/2000/svg">
<rect width="24" height="24" rx="7" fill="#00A2AA"/>
<path fill-rule="evenodd" clip-rule="evenodd" d="M17.4295 15.2879L14.9767 14.2984C14.7605 14.2101 14.5228 14.1889 14.2945 14.2374C14.0662 14.2859 13.8577 14.4019 13.696 14.5704L12.7137 15.5975C11.1637 14.8129 9.90391 13.5531 9.11934 12.0031L10.1502 11.0247C10.4901 10.7002 10.5975 10.2077 10.4211 9.77426L9.43156 7.32135C9.34122 7.0985 9.18685 6.90745 8.98793 6.77243C8.78901 6.63742 8.55448 6.56454 8.31406 6.5629H6.62031C5.7793 6.5629 5.09609 7.2461 5.1503 8.08554C5.55703 14.2043 10.4818 19.1152 16.5867 19.5199C17.4258 19.5741 18.1109 18.8909 18.1109 18.0499V16.3562C18.107 15.8626 17.8014 15.4231 17.4295 15.2879Z" fill="white"/>
</svg>
