<svg width="187" height="42" viewBox="0 0 187 42" fill="none" xmlns="http://www.w3.org/2000/svg">
<g clip-path="url(#clip0_1138_4158)">
<path d="M185.12 9.20449C186.593 12.8578 185.794 17.4235 181.843 19.1915C184.023 19.8467 185.695 21.2784 186.443 23.4085C187.894 27.5421 186.521 32.5069 182.236 34.1926C180.838 34.6925 179.411 35.0535 177.854 35.0555L160.037 35.0813L160.033 4.74479L176.016 4.7417L179.176 4.94432C179.109 5.07289 179.042 5.17574 178.984 5.17574H178.71C178.848 5.34236 179.219 5.18705 179.426 5.041C181.907 5.4195 184.173 6.85944 185.12 9.20757V9.20449ZM178.612 15.7418C179.487 14.7318 179.385 12.7272 178.452 11.7758C177.579 10.8872 176.275 10.7154 175.002 10.6557L167.17 10.6403L167.165 16.9689L175.973 16.9277C176.942 16.9236 178.016 16.4289 178.612 15.7418ZM179 28.2343C180.187 27.2583 180.27 25.5684 179.605 24.1953C178.794 23.1699 177.582 22.8191 176.227 22.6844L167.168 22.6628L167.166 29.2042L176.377 29.1991C177.325 29.0479 178.203 28.8895 179 28.2343Z" fill="#0A9FA8"/>
<path d="M57.0595 28.0554C61.6046 30.8972 67.5925 29.8677 70.9751 25.6857L76.923 28.5481L76.236 29.5046C73.606 33.1692 67.8482 36.1129 63.4961 36.0728L61.4207 36.0543C57.4641 35.8578 53.7508 34.2862 50.8138 31.7128C45.5673 27.1153 44.1286 19.5999 47.3049 13.3896C49.3998 9.29296 52.9693 6.28245 57.4004 4.92994C59.3454 4.33648 61.3181 3.96004 63.3708 4.04849C67.0102 4.20585 70.3312 5.26935 73.185 7.51875C74.3485 8.43517 75.3929 9.44004 76.2123 10.6732L77.1027 12.0134L71.4454 14.6393C71.3232 14.6958 71.1332 14.774 71.0357 14.7832C70.9186 14.7946 70.7646 14.5549 70.6989 14.415C70.6054 14.2155 70.4206 14.1126 70.2604 13.9419C67.9837 11.5136 64.8321 10.2824 61.4372 10.702C58.4119 11.0754 55.5489 12.9442 53.9654 15.7223C51.5326 19.9907 52.8307 25.4121 57.0584 28.0564L57.0595 28.0554Z" fill="#0A9FA8"/>
<path d="M132.239 29.7122L133.301 28.8627L139.27 23.9319L144.483 19.3858C145.459 18.5352 146.223 17.5416 146.858 16.4308C148.083 14.2905 147.81 11.5803 145.482 10.5075C144.019 9.82562 142.368 10.0036 140.984 10.85C139.907 11.7243 139.375 12.9379 139.305 14.4324L132.752 14.4447C132.692 10.3882 134.931 6.87991 138.565 5.29186C142.041 3.77272 146.017 3.79946 149.412 5.51814C151.343 6.49524 152.764 8.05141 153.55 10.0509C155.069 13.9192 153.993 17.9397 151.532 21.1857C150.5 22.5125 149.431 23.718 148.111 24.764L142.252 29.4078L155.138 29.4191L155.133 35.0832H132.254L132.238 29.7112L132.239 29.7122Z" fill="#0A9FA8"/>
<path d="M102.504 24.9346L102.529 35.0789L95.8756 35.0841L95.8735 32.9283C93.8649 34.8866 91.0173 35.7783 88.1779 35.4688C83.8721 34.9998 80.4258 32.2093 79.0846 28.0973C77.6716 23.7651 78.5629 18.9269 81.7854 15.6099C85.509 11.7766 92.0668 11.3199 95.852 15.0504L95.8807 13.053L102.418 13.055L102.504 15.0401L102.498 17.3543L102.507 24.231L102.504 24.9356V24.9346ZM95.9578 23.9924C95.9578 20.8678 93.4285 18.3345 90.3087 18.3345C87.189 18.3345 84.6597 20.8678 84.6597 23.9924C84.6597 27.1171 87.189 29.6504 90.3087 29.6504C93.4285 29.6504 95.9578 27.1171 95.9578 23.9924Z" fill="#0A9FA8"/>
<path d="M114.289 4.24268H107.488V35.0883H114.289V4.24268Z" fill="#0A9FA8"/>
<path d="M125.85 4.24268H119.172V35.0883H125.85V4.24268Z" fill="#0A9FA8"/>
<path d="M36.2016 6.84692C36.0486 4.71581 34.958 2.71635 33.2256 1.46874C32.1114 0.666487 30.72 0.0226276 29.271 0.0215991L8.96696 0C8.64246 0 8.32104 0.017485 8.00372 0.0514265H7.75727C4.46808 0.0514265 1.66154 2.12186 0.563773 5.03157C0.202301 5.88627 0.00308072 6.82018 0.00308072 7.80242L0 28.8451C0 32.7648 3.34156 35.9492 7.31467 35.9831L15.724 36.0541C16.4233 36.0602 17.2603 36.4521 17.8446 36.8409L25.3759 41.8467C25.6902 42.0555 26.1615 42.0432 26.4716 41.8622C26.6842 41.7377 26.8711 41.3345 26.8721 41.0116L26.8865 36.5087C26.8875 36.1209 27.4503 35.9934 27.7265 36.0057C29.1806 36.0695 30.4756 35.9656 31.8167 35.4236C34.2741 34.43 36.2242 32.1415 36.2293 29.3697L36.2314 28.4049C36.2314 28.3658 36.2345 28.3267 36.2345 28.2876V26.8354L36.2622 11.9937C36.2653 10.2328 36.3279 8.60468 36.2016 6.84898V6.84692ZM29.4558 23.9195C29.27 24.8287 28.3273 26.2131 27.6598 26.7767C25.1089 28.9336 22.3866 28.8472 19.4168 27.4299C14.6006 25.1311 10.915 20.911 8.54182 16.1736C7.57961 14.2523 6.57632 11.7324 7.60734 9.88314C8.01913 9.14568 8.57674 8.55428 9.14051 7.92276C9.6478 7.35501 10.1705 6.71321 10.8945 6.41802C12.1042 5.92433 13.433 6.47562 14.1395 7.54838C14.9035 8.70959 15.5803 9.88211 16.1789 11.1184C16.5538 11.8939 16.2642 12.7157 15.6121 13.1652C15.1058 13.5149 14.6088 13.8934 14.1826 14.2924C13.6764 14.7687 13.7924 15.3724 14.121 15.8949C15.6018 18.2523 17.5632 20.226 19.9128 21.7246C20.9664 22.3973 21.9194 21.2083 22.7696 20.1324C23.2574 19.5153 24.0492 19.251 24.7762 19.6573L28.3468 21.6567C29.2258 22.1484 29.6653 22.8868 29.4548 23.9174L29.4558 23.9195Z" fill="#0A9FA8"/>
</g>
<defs>
<clipPath id="clip0_1138_4158">
<rect width="187" height="42" fill="white"/>
</clipPath>
</defs>
</svg>
