<svg width="89" height="20" viewBox="0 0 89 20" fill="none" xmlns="http://www.w3.org/2000/svg">
<g clip-path="url(#clip0_1138_4236)">
<path d="M88.1055 4.38295C88.8069 6.12263 88.4266 8.29675 86.5459 9.13867C87.5835 9.45066 88.3792 10.1324 88.7355 11.1468C89.4261 13.1152 88.7726 15.4793 86.7331 16.2821C86.0679 16.5201 85.3886 16.692 84.6477 16.693L76.168 16.7052L76.166 2.25928L83.7728 2.25781L85.2767 2.3543C85.2449 2.41552 85.2131 2.4645 85.1853 2.4645H85.0548C85.1208 2.54384 85.2972 2.46989 85.3959 2.40034C86.5767 2.58057 87.6549 3.26626 88.1055 4.38442V4.38295ZM85.0083 7.49597C85.4248 7.01501 85.3764 6.06043 84.9321 5.60739C84.5167 5.18422 83.896 5.10243 83.2904 5.07402L79.5628 5.06668L79.5603 8.08027L83.7523 8.06068C84.2136 8.05872 84.7249 7.82314 85.0083 7.49597ZM85.1931 13.4448C85.7581 12.98 85.7977 12.1753 85.481 11.5214C85.0948 11.0331 84.5181 10.8661 83.873 10.802L79.5618 10.7917L79.5608 13.9066L83.9448 13.9042C84.396 13.8322 84.8138 13.7568 85.1931 13.4448Z" fill="#0A9FA8"/>
<path d="M27.1561 13.3599C29.3193 14.7131 32.1691 14.2228 33.779 12.2314L36.6098 13.5945L36.2829 14.0499C35.0312 15.795 32.2908 17.1968 30.2195 17.1777L29.2318 17.1688C27.3486 17.0753 25.5814 16.3269 24.1835 15.1015C21.6866 12.9122 21.0018 9.3334 22.5135 6.37614C23.5106 4.42536 25.2094 2.99178 27.3183 2.34773C28.244 2.06513 29.1829 1.88587 30.1599 1.92799C31.892 2.00293 33.4726 2.50936 34.8308 3.5805C35.3845 4.01689 35.8816 4.4954 36.2716 5.08264L36.6954 5.72082L34.0029 6.97121C33.9447 6.99815 33.8543 7.03537 33.8079 7.03978C33.7521 7.04517 33.6788 6.93105 33.6476 6.86444C33.6031 6.76943 33.5151 6.72045 33.4389 6.63915C32.3553 5.48278 30.8554 4.89652 29.2396 5.09635C27.7998 5.27414 26.4371 6.16406 25.6835 7.48695C24.5257 9.51952 25.1434 12.1011 27.1556 13.3603L27.1561 13.3599Z" fill="#0A9FA8"/>
<path d="M62.938 14.1491L63.4433 13.7445L66.2839 11.3965L68.7653 9.2317C69.2296 8.82666 69.5932 8.35354 69.8957 7.82458C70.4788 6.80535 70.3488 5.5148 69.2408 5.00396C68.5444 4.67924 67.7585 4.76397 67.1001 5.16705C66.5874 5.58336 66.3343 6.1613 66.301 6.87294L63.1819 6.87882C63.1535 4.94715 64.219 3.27652 65.9486 2.52031C67.603 1.79691 69.4954 1.80964 71.1112 2.62806C72.0301 3.09334 72.7065 3.83437 73.0804 4.7865C73.8032 6.62855 73.2915 8.54308 72.12 10.0888C71.6288 10.7206 71.12 11.2946 70.492 11.7927L67.7032 14.0041L73.8365 14.0095L73.834 16.7067H62.9448L62.9375 14.1486L62.938 14.1491Z" fill="#0A9FA8"/>
<path d="M48.7853 11.8736L48.797 16.7043L45.6304 16.7068L45.6294 15.6802C44.6735 16.6127 43.3182 17.0374 41.9668 16.8899C39.9175 16.6666 38.2773 15.3378 37.639 13.3797C36.9665 11.3168 37.3907 9.01287 38.9244 7.43334C40.6966 5.60794 43.8177 5.39048 45.6192 7.1669L45.6329 6.21576L48.7442 6.21673L48.7853 7.162L48.7823 8.264L48.7867 11.5386L48.7853 11.8741V11.8736ZM45.6695 11.425C45.6695 9.93707 44.4657 8.73075 42.981 8.73075C41.4962 8.73075 40.2924 9.93707 40.2924 11.425C40.2924 12.913 41.4962 14.1193 42.981 14.1193C44.4657 14.1193 45.6695 12.913 45.6695 11.425Z" fill="#0A9FA8"/>
<path d="M54.3932 2.02051H51.1562V16.7089H54.3932V2.02051Z" fill="#0A9FA8"/>
<path d="M59.897 2.02051H56.7188V16.7089H59.897V2.02051Z" fill="#0A9FA8"/>
<path d="M17.2296 3.26044C17.1568 2.24562 16.6378 1.2935 15.8133 0.6994C15.283 0.317375 14.6207 0.0107751 13.9311 0.0102853L4.2677 0C4.11326 0 3.96028 0.00832619 3.80926 0.0244888H3.69196C2.12652 0.0244888 0.790785 1.01041 0.26832 2.39598C0.0962823 2.80299 0.00146623 3.2477 0.00146623 3.71544L0 13.7358C0 15.6023 1.59037 17.1186 3.48131 17.1348L7.48362 17.1686C7.81646 17.1715 8.21478 17.3581 8.49288 17.5433L12.0773 19.927C12.2269 20.0264 12.4512 20.0206 12.5988 19.9344C12.7 19.8751 12.7889 19.6831 12.7894 19.5293L12.7963 17.3851C12.7967 17.2004 13.0646 17.1397 13.196 17.1456C13.8881 17.176 14.5044 17.1265 15.1427 16.8684C16.3123 16.3953 17.2404 15.3055 17.2428 13.9856L17.2438 13.5261C17.2438 13.5075 17.2453 13.4889 17.2453 13.4703V12.7787L17.2585 5.71128C17.2599 4.87278 17.2898 4.09747 17.2296 3.26142V3.26044ZM14.0191 11.3902C13.9306 11.8232 13.482 12.4824 13.1643 12.7508C11.9502 13.7779 10.6546 13.7367 9.24114 13.0618C6.94894 11.9672 5.19484 9.95763 4.06536 7.70173C3.60741 6.78683 3.12991 5.58687 3.6206 4.70626C3.81659 4.35509 4.08198 4.07347 4.3503 3.77274C4.59174 3.50239 4.8405 3.19677 5.18507 3.0562C5.76081 2.82111 6.39324 3.08363 6.72949 3.59447C7.09312 4.14742 7.4152 4.70577 7.70014 5.29448C7.87853 5.66377 7.7407 6.0551 7.43035 6.26913C7.1894 6.43566 6.95285 6.61589 6.75002 6.80593C6.50907 7.03269 6.5643 7.32019 6.7207 7.569C7.42546 8.69156 8.35896 9.63144 9.4772 10.345C9.97865 10.6654 10.4322 10.0992 10.8369 9.58687C11.069 9.29301 11.4459 9.16714 11.7919 9.3606L13.4912 10.3127C13.9096 10.5468 14.1188 10.8985 14.0186 11.3892L14.0191 11.3902Z" fill="#0A9FA8"/>
</g>
<defs>
<clipPath id="clip0_1138_4236">
<rect width="89" height="20" fill="white"/>
</clipPath>
</defs>
</svg>
