<svg width="24" height="24" viewBox="0 0 24 24" fill="none" xmlns="http://www.w3.org/2000/svg">
<path d="M3.75 18.75V4.5C3.75 4.08579 3.41421 3.75 3 3.75C2.58579 3.75 2.25 4.08579 2.25 4.5V19.5C2.25 19.9142 2.58579 20.25 3 20.25H21C21.4142 20.25 21.75 19.9142 21.75 19.5C21.75 19.0858 21.4142 18.75 21 18.75H3.75Z" fill="#A1A7A7"/>
<path d="M8.50612 9.18557L2.50612 14.4356C2.34336 14.578 2.25 14.7837 2.25 15C2.25 15.0092 2.25017 15.0184 2.25051 15.0277C2.25686 15.1997 2.3222 15.3643 2.43557 15.4939C2.57798 15.6566 2.78373 15.75 3 15.75C3.00922 15.75 3.01845 15.7498 3.02766 15.7495C3.1997 15.7431 3.36432 15.6778 3.49388 15.5644L9.03635 10.7148L14.55 14.85C14.8335 15.0626 15.2272 15.0478 15.4939 14.8144L21.4937 9.56461C21.6564 9.4222 21.75 9.21627 21.75 9C21.75 8.99078 21.7498 8.98155 21.7495 8.97234C21.7431 8.8003 21.6778 8.63568 21.5644 8.50612C21.422 8.34336 21.2163 8.25 21 8.25C20.9908 8.25 20.9816 8.25017 20.9723 8.25051C20.8003 8.25686 20.6357 8.3222 20.5061 8.43557L14.9636 13.2852L9.45 9.15C9.16649 8.93736 8.77283 8.9522 8.50612 9.18557Z" fill="#A1A7A7"/>
</svg>
