<svg width="56" height="56" viewBox="0 0 56 56" fill="none" xmlns="http://www.w3.org/2000/svg">
<rect width="56" height="56" rx="28" fill="#E5ECED"/>
<path fill-rule="evenodd" clip-rule="evenodd" d="M38.4142 40.4142C38.4142 40.4142 37.8284 41 37 41H19C19 41 18.1716 41 17.5858 40.4142C17.5858 40.4142 17 39.8284 17 39V17C17 17 17 16.1716 17.5858 15.5858C17.5858 15.5858 18.1716 15 19 15H31C31.2652 15 31.5196 15.1054 31.7071 15.2929L38.7071 22.2929C38.8946 22.4804 39 22.7348 39 23V39C39 39 39 39.8284 38.4142 40.4142ZM37 39V23.4142L30.5858 17H19V39H37Z" fill="#00A2AA"/>
<path d="M31 24H38C38.5523 24 39 23.5523 39 23C39 22.4477 38.5523 22 38 22H32V16C32 15.4477 31.5523 15 31 15C30.4477 15 30 15.4477 30 16V23C30 23.5523 30.4477 24 31 24Z" fill="#00A2AA"/>
<path d="M25 30H31C31.5523 30 32 29.5523 32 29C32 28.4477 31.5523 28 31 28H25C24.4477 28 24 28.4477 24 29C24 29.5523 24.4477 30 25 30Z" fill="#00A2AA"/>
<path d="M27 26V32C27 32.5523 27.4477 33 28 33C28.5523 33 29 32.5523 29 32V26C29 25.4477 28.5523 25 28 25C27.4477 25 27 25.4477 27 26Z" fill="#00A2AA"/>
</svg>
